<svg width="1083" height="411" xmlns="http://www.w3.org/2000/svg" xmlns:xlink="http://www.w3.org/1999/xlink" xml:space="preserve" overflow="hidden"><g transform="translate(-1402 -724)"><path d="M2461.5 1075.5 1413.5 1075.5 1413.5 725.5 2461.5 725.5 2461.5 754.692 2461.5 1075.5Z" stroke="#FFFFFF" stroke-width="2.81316" stroke-miterlimit="8" fill="#D2D6D9" fill-rule="evenodd"/><path d="M1403.5 725.5 1442.5 725.5 1442.5 1075.5 1403.5 1075.5Z" stroke="#FFFFFF" stroke-width="2.60059" stroke-miterlimit="8" fill="#D2D6D9" fill-rule="evenodd"/><path d="M1410 984 1423 984 1423 1074 1410 1074Z" fill="#BE1622" fill-rule="evenodd"/><path d="M1413 1063 1413 1060.61C1413 1059.95 1413.06 1059.5 1413.17 1059.24 1413.29 1058.98 1413.49 1058.76 1413.77 1058.57 1414.06 1058.39 1414.4 1058.29 1414.76 1058.29 1415.1 1058.29 1415.4 1058.36 1415.67 1058.52 1415.95 1058.69 1416.14 1058.89 1416.28 1059.14 1416.4 1058.79 1416.61 1058.51 1416.9 1058.31 1417.19 1058.1 1417.56 1058 1417.97 1058 1418.48 1058 1418.91 1058.13 1419.26 1058.38 1419.61 1058.63 1419.82 1058.93 1419.91 1059.28 1419.97 1059.53 1420 1060.08 1420 1060.96L1420 1062.99 1413 1062.99ZM1414.17 1061.8 1415.79 1061.8 1415.79 1061.02C1415.79 1060.54 1415.79 1060.24 1415.76 1060.14 1415.73 1059.94 1415.64 1059.78 1415.51 1059.66 1415.37 1059.55 1415.19 1059.49 1414.96 1059.49 1414.75 1059.49 1414.58 1059.53 1414.46 1059.63 1414.32 1059.72 1414.25 1059.84 1414.21 1059.97 1414.18 1060.1 1414.17 1060.48 1414.17 1061.12L1414.17 1061.82ZM1416.95 1061.8 1418.82 1061.8 1418.82 1060.68C1418.82 1060.19 1418.79 1059.88 1418.74 1059.73 1418.69 1059.59 1418.59 1059.47 1418.45 1059.39 1418.3 1059.3 1418.12 1059.24 1417.9 1059.24 1417.69 1059.24 1417.49 1059.28 1417.34 1059.39 1417.19 1059.49 1417.1 1059.62 1417.04 1059.79 1416.98 1059.95 1416.95 1060.3 1416.95 1060.81L1416.95 1061.79Z" fill="#FFFFFF" fill-rule="evenodd"/><path d="M1420 1057 1413 1057 1413 1052.11 1414.18 1052.11 1414.18 1055.68 1415.73 1055.68 1415.73 1052.37 1416.92 1052.37 1416.92 1055.68 1418.82 1055.68 1418.82 1052 1420 1052 1420 1057Z" fill="#FFFFFF" fill-rule="evenodd"/><path d="M1417.39 1047.35 1417.81 1046C1418.58 1046.2 1419.12 1046.56 1419.47 1047.05 1419.82 1047.54 1420 1048.15 1420 1048.86 1420 1049.75 1419.72 1050.48 1419.16 1051.04 1418.52 1051.68 1417.65 1052 1416.57 1052 1415.41 1052 1414.51 1051.68 1413.85 1051.04 1413.28 1050.48 1413 1049.72 1413 1048.77 1413 1047.99 1413.21 1047.35 1413.63 1046.83 1413.94 1046.46 1414.38 1046.19 1414.98 1046.02L1415.3 1047.39C1414.94 1047.47 1414.66 1047.66 1414.47 1047.91 1414.28 1048.16 1414.17 1048.48 1414.17 1048.84 1414.17 1049.35 1414.35 1049.77 1414.72 1050.09 1415.07 1050.41 1415.66 1050.58 1416.48 1050.58 1417.3 1050.58 1417.93 1050.43 1418.3 1050.11 1418.66 1049.79 1418.84 1049.38 1418.84 1048.89 1418.84 1048.52 1418.72 1048.21 1418.5 1047.94 1418.27 1047.67 1417.92 1047.49 1417.42 1047.37Z" fill="#FFFFFF" fill-rule="evenodd"/><path d="M1420 1044.98 1413 1044.98 1413 1043.65 1416.11 1043.65 1413 1040.94 1413 1039.13 1415.73 1041.63 1420 1039 1420 1040.74 1416.7 1042.58 1417.87 1043.67 1419.98 1043.67 1419.98 1045Z" fill="#FFFFFF" fill-rule="evenodd"/><path d="M1420 1039 1413 1039 1413 1037.74 1415.76 1037.74 1415.76 1035.26 1413 1035.26 1413 1034 1420 1034 1420 1035.26 1416.93 1035.26 1416.93 1037.74 1420 1037.74 1420 1039Z" fill="#FFFFFF" fill-rule="evenodd"/><path d="M1416.53 1033C1415.72 1033 1415.06 1032.86 1414.54 1032.61 1414.01 1032.33 1413.63 1032 1413.38 1031.56 1413.13 1031.14 1413 1030.61 1413 1030 1413 1029.12 1413.31 1028.39 1413.91 1027.83 1414.51 1027.27 1415.37 1027 1416.5 1027 1417.63 1027 1418.51 1027.29 1419.15 1027.88 1419.71 1028.39 1420 1029.11 1420 1029.98 1420 1030.86 1419.72 1031.59 1419.17 1032.11 1418.54 1032.7 1417.66 1032.98 1416.54 1032.98ZM1416.47 1031.71C1417.25 1031.71 1417.83 1031.55 1418.21 1031.21 1418.61 1030.88 1418.8 1030.47 1418.8 1029.98 1418.8 1029.5 1418.61 1029.09 1418.23 1028.76 1417.85 1028.42 1417.25 1028.27 1416.46 1028.27 1415.67 1028.27 1415.09 1028.42 1414.71 1028.74 1414.33 1029.06 1414.16 1029.47 1414.16 1029.97 1414.16 1030.47 1414.35 1030.89 1414.73 1031.21 1415.11 1031.53 1415.69 1031.7 1416.49 1031.7Z" fill="#FFFFFF" fill-rule="evenodd"/><path d="M1420 1026 1413 1026 1413 1022 1414.18 1022 1414.18 1024.83 1415.84 1024.83 1415.84 1022.39 1417.02 1022.39 1417.02 1024.83 1420 1024.83 1420 1026Z" fill="#FFFFFF" fill-rule="evenodd"/><path d="M1420 1020 1413 1020 1413 1016 1414.18 1016 1414.18 1018.83 1415.84 1018.83 1415.84 1016.39 1417.02 1016.39 1417.02 1018.83 1420 1018.83 1420 1020Z" fill="#FFFFFF" fill-rule="evenodd"/><path d="M1481.08 924.5C1484.63 924.5 1487.5 927.344 1487.5 930.853L1487.5 1058.15C1487.5 1061.66 1484.63 1064.5 1481.08 1064.5L1474.92 1064.5C1471.37 1064.5 1468.5 1061.66 1468.5 1058.15L1468.5 930.853C1468.5 927.344 1471.37 924.5 1474.92 924.5Z" stroke="#FFFFFF" stroke-width="3.19137" stroke-miterlimit="8" fill="#DADADA" fill-rule="evenodd"/><path d="M1468.5 950.5 1487.5 950.5 1487.5 1038.5 1468.5 1038.5Z" stroke="#FFFFFF" stroke-width="3.19137" stroke-miterlimit="8" fill="#1D1D1B" fill-rule="evenodd"/><path d="M1536.74 924.5C1540.47 924.5 1543.5 927.344 1543.5 930.853L1543.5 1058.15C1543.5 1061.66 1540.47 1064.5 1536.74 1064.5L1530.26 1064.5C1526.53 1064.5 1523.5 1061.66 1523.5 1058.15L1523.5 930.853C1523.5 927.344 1526.53 924.5 1530.26 924.5Z" stroke="#FFFFFF" stroke-width="3.19137" stroke-miterlimit="8" fill="#DADADA" fill-rule="evenodd"/><path d="M1523.5 950.5 1543.5 950.5 1543.5 1038.5 1523.5 1038.5Z" stroke="#FFFFFF" stroke-width="3.19137" stroke-miterlimit="8" fill="#1D1D1B" fill-rule="evenodd"/><path d="M1592.08 924.5C1595.63 924.5 1598.5 927.344 1598.5 930.853L1598.5 1058.15C1598.5 1061.66 1595.63 1064.5 1592.08 1064.5L1585.92 1064.5C1582.37 1064.5 1579.5 1061.66 1579.5 1058.15L1579.5 930.853C1579.5 927.344 1582.37 924.5 1585.92 924.5Z" stroke="#FFFFFF" stroke-width="3.19137" stroke-miterlimit="8" fill="#DADADA" fill-rule="evenodd"/><path d="M1579.5 950.5 1598.5 950.5 1598.5 1038.5 1579.5 1038.5Z" stroke="#FFFFFF" stroke-width="3.19137" stroke-miterlimit="8" fill="#1D1D1B" fill-rule="evenodd"/><path d="M1647.08 924.5C1650.63 924.5 1653.5 927.344 1653.5 930.853L1653.5 1058.15C1653.5 1061.66 1650.63 1064.5 1647.08 1064.5L1640.92 1064.5C1637.37 1064.5 1634.5 1061.66 1634.5 1058.15L1634.5 930.853C1634.5 927.344 1637.37 924.5 1640.92 924.5Z" stroke="#FFFFFF" stroke-width="3.19137" stroke-miterlimit="8" fill="#DADADA" fill-rule="evenodd"/><path d="M1634.5 950.5 1653.5 950.5 1653.5 1038.5 1634.5 1038.5Z" stroke="#FFFFFF" stroke-width="3.19137" stroke-miterlimit="8" fill="#1D1D1B" fill-rule="evenodd"/><path d="M1702.08 924.5C1705.63 924.5 1708.5 927.344 1708.5 930.853L1708.5 1058.15C1708.5 1061.66 1705.63 1064.5 1702.08 1064.5L1695.92 1064.5C1692.37 1064.5 1689.5 1061.66 1689.5 1058.15L1689.5 930.853C1689.5 927.344 1692.37 924.5 1695.92 924.5Z" stroke="#FFFFFF" stroke-width="3.19137" stroke-miterlimit="8" fill="#DADADA" fill-rule="evenodd"/><path d="M1689.5 950.5 1708.5 950.5 1708.5 1038.5 1689.5 1038.5Z" stroke="#FFFFFF" stroke-width="3.19137" stroke-miterlimit="8" fill="#1D1D1B" fill-rule="evenodd"/><path d="M1757.08 924.5C1760.63 924.5 1763.5 927.344 1763.5 930.853L1763.5 1058.15C1763.5 1061.66 1760.63 1064.5 1757.08 1064.5L1750.92 1064.5C1747.37 1064.5 1744.5 1061.66 1744.5 1058.15L1744.5 930.853C1744.5 927.344 1747.37 924.5 1750.92 924.5Z" stroke="#FFFFFF" stroke-width="3.19137" stroke-miterlimit="8" fill="#DADADA" fill-rule="evenodd"/><path d="M1744.5 950.5 1763.5 950.5 1763.5 1038.5 1744.5 1038.5Z" stroke="#FFFFFF" stroke-width="3.19137" stroke-miterlimit="8" fill="#1D1D1B" fill-rule="evenodd"/><path d="M1481.08 734.5C1484.63 734.5 1487.5 737.345 1487.5 740.853L1487.5 868.147C1487.5 871.656 1484.63 874.5 1481.08 874.5L1474.92 874.5C1471.37 874.5 1468.5 871.656 1468.5 868.147L1468.5 740.853C1468.5 737.345 1471.37 734.5 1474.92 734.5Z" stroke="#FFFFFF" stroke-width="3.19137" stroke-miterlimit="8" fill="#DADADA" fill-rule="evenodd"/><path d="M1468.5 760.5 1487.5 760.5 1487.5 848.5 1468.5 848.5Z" stroke="#FFFFFF" stroke-width="3.19137" stroke-miterlimit="8" fill="#1D1D1B" fill-rule="evenodd"/><path d="M1536.74 734.5C1540.47 734.5 1543.5 737.345 1543.5 740.853L1543.5 868.147C1543.5 871.656 1540.47 874.5 1536.74 874.5L1530.26 874.5C1526.53 874.5 1523.5 871.656 1523.5 868.147L1523.5 740.853C1523.5 737.345 1526.53 734.5 1530.26 734.5Z" stroke="#FFFFFF" stroke-width="3.19137" stroke-miterlimit="8" fill="#DADADA" fill-rule="evenodd"/><path d="M1523.5 760.5 1543.5 760.5 1543.5 848.5 1523.5 848.5Z" stroke="#FFFFFF" stroke-width="3.19137" stroke-miterlimit="8" fill="#1D1D1B" fill-rule="evenodd"/><path d="M1592.08 734.5C1595.63 734.5 1598.5 737.345 1598.5 740.853L1598.5 868.147C1598.5 871.656 1595.63 874.5 1592.08 874.5L1585.92 874.5C1582.37 874.5 1579.5 871.656 1579.5 868.147L1579.5 740.853C1579.5 737.345 1582.37 734.5 1585.92 734.5Z" stroke="#FFFFFF" stroke-width="3.19137" stroke-miterlimit="8" fill="#DADADA" fill-rule="evenodd"/><path d="M1579.5 760.5 1598.5 760.5 1598.5 848.5 1579.5 848.5Z" stroke="#FFFFFF" stroke-width="3.19137" stroke-miterlimit="8" fill="#1D1D1B" fill-rule="evenodd"/><path d="M1647.08 734.5C1650.63 734.5 1653.5 737.345 1653.5 740.853L1653.5 868.147C1653.5 871.656 1650.63 874.5 1647.08 874.5L1640.92 874.5C1637.37 874.5 1634.5 871.656 1634.5 868.147L1634.5 740.853C1634.5 737.345 1637.37 734.5 1640.92 734.5Z" stroke="#FFFFFF" stroke-width="3.19137" stroke-miterlimit="8" fill="#DADADA" fill-rule="evenodd"/><path d="M1634.5 760.5 1653.5 760.5 1653.5 848.5 1634.5 848.5Z" stroke="#FFFFFF" stroke-width="3.19137" stroke-miterlimit="8" fill="#1D1D1B" fill-rule="evenodd"/><path d="M1702.08 734.5C1705.63 734.5 1708.5 737.345 1708.5 740.853L1708.5 868.147C1708.5 871.656 1705.63 874.5 1702.08 874.5L1695.92 874.5C1692.37 874.5 1689.5 871.656 1689.5 868.147L1689.5 740.853C1689.5 737.345 1692.37 734.5 1695.92 734.5Z" stroke="#FFFFFF" stroke-width="3.19137" stroke-miterlimit="8" fill="#DADADA" fill-rule="evenodd"/><path d="M1689.5 760.5 1708.5 760.5 1708.5 848.5 1689.5 848.5Z" stroke="#FFFFFF" stroke-width="3.19137" stroke-miterlimit="8" fill="#1D1D1B" fill-rule="evenodd"/><path d="M1757.08 734.5C1760.63 734.5 1763.5 737.345 1763.5 740.853L1763.5 868.147C1763.5 871.656 1760.63 874.5 1757.08 874.5L1750.92 874.5C1747.37 874.5 1744.5 871.656 1744.5 868.147L1744.5 740.853C1744.5 737.345 1747.37 734.5 1750.92 734.5Z" stroke="#FFFFFF" stroke-width="3.19137" stroke-miterlimit="8" fill="#DADADA" fill-rule="evenodd"/><path d="M1744.5 760.5 1763.5 760.5 1763.5 848.5 1744.5 848.5Z" stroke="#FFFFFF" stroke-width="3.19137" stroke-miterlimit="8" fill="#1D1D1B" fill-rule="evenodd"/><path d="M1814.08 924.5C1817.63 924.5 1820.5 927.344 1820.5 930.853L1820.5 1058.15C1820.5 1061.66 1817.63 1064.5 1814.08 1064.5L1807.92 1064.5C1804.37 1064.5 1801.5 1061.66 1801.5 1058.15L1801.5 930.853C1801.5 927.344 1804.37 924.5 1807.92 924.5Z" stroke="#FFFFFF" stroke-width="3.19137" stroke-miterlimit="8" fill="#DADADA" fill-rule="evenodd"/><path d="M1801.5 950.5 1820.5 950.5 1820.5 1038.5 1801.5 1038.5Z" stroke="#FFFFFF" stroke-width="3.19137" stroke-miterlimit="8" fill="#1D1D1B" fill-rule="evenodd"/><path d="M1869.74 924.5C1873.47 924.5 1876.5 927.344 1876.5 930.853L1876.5 1058.15C1876.5 1061.66 1873.47 1064.5 1869.74 1064.5L1863.26 1064.5C1859.53 1064.5 1856.5 1061.66 1856.5 1058.15L1856.5 930.853C1856.5 927.344 1859.53 924.5 1863.26 924.5Z" stroke="#FFFFFF" stroke-width="3.19137" stroke-miterlimit="8" fill="#DADADA" fill-rule="evenodd"/><path d="M1856.5 950.5 1876.5 950.5 1876.5 1038.5 1856.5 1038.5Z" stroke="#FFFFFF" stroke-width="3.19137" stroke-miterlimit="8" fill="#1D1D1B" fill-rule="evenodd"/><path d="M1814.08 734.5C1817.63 734.5 1820.5 737.345 1820.5 740.853L1820.5 868.147C1820.5 871.656 1817.63 874.5 1814.08 874.5L1807.92 874.5C1804.37 874.5 1801.5 871.656 1801.5 868.147L1801.5 740.853C1801.5 737.345 1804.37 734.5 1807.92 734.5Z" stroke="#FFFFFF" stroke-width="3.19137" stroke-miterlimit="8" fill="#DADADA" fill-rule="evenodd"/><path d="M1801.5 760.5 1820.5 760.5 1820.5 848.5 1801.5 848.5Z" stroke="#FFFFFF" stroke-width="3.19137" stroke-miterlimit="8" fill="#1D1D1B" fill-rule="evenodd"/><path d="M1869.74 734.5C1873.47 734.5 1876.5 737.345 1876.5 740.853L1876.5 868.147C1876.5 871.656 1873.47 874.5 1869.74 874.5L1863.26 874.5C1859.53 874.5 1856.5 871.656 1856.5 868.147L1856.5 740.853C1856.5 737.345 1859.53 734.5 1863.26 734.5Z" stroke="#FFFFFF" stroke-width="3.19137" stroke-miterlimit="8" fill="#DADADA" fill-rule="evenodd"/><path d="M1856.5 760.5 1876.5 760.5 1876.5 848.5 1856.5 848.5Z" stroke="#FFFFFF" stroke-width="3.19137" stroke-miterlimit="8" fill="#1D1D1B" fill-rule="evenodd"/><path d="M1925.08 924.5C1928.63 924.5 1931.5 927.344 1931.5 930.853L1931.5 1058.15C1931.5 1061.66 1928.63 1064.5 1925.08 1064.5L1918.92 1064.5C1915.37 1064.5 1912.5 1061.66 1912.5 1058.15L1912.5 930.853C1912.5 927.344 1915.37 924.5 1918.92 924.5Z" stroke="#FFFFFF" stroke-width="3.19137" stroke-miterlimit="8" fill="#DADADA" fill-rule="evenodd"/><path d="M1912.5 950.5 1931.5 950.5 1931.5 1038.5 1912.5 1038.5Z" stroke="#FFFFFF" stroke-width="3.19137" stroke-miterlimit="8" fill="#1D1D1B" fill-rule="evenodd"/><path d="M1980.08 924.5C1983.63 924.5 1986.5 927.344 1986.5 930.853L1986.5 1058.15C1986.5 1061.66 1983.63 1064.5 1980.08 1064.5L1973.92 1064.5C1970.37 1064.5 1967.5 1061.66 1967.5 1058.15L1967.5 930.853C1967.5 927.344 1970.37 924.5 1973.92 924.5Z" stroke="#FFFFFF" stroke-width="3.19137" stroke-miterlimit="8" fill="#DADADA" fill-rule="evenodd"/><path d="M1967.5 950.5 1986.5 950.5 1986.5 1038.5 1967.5 1038.5Z" stroke="#FFFFFF" stroke-width="3.19137" stroke-miterlimit="8" fill="#1D1D1B" fill-rule="evenodd"/><path d="M1925.08 734.5C1928.63 734.5 1931.5 737.345 1931.5 740.853L1931.5 868.147C1931.5 871.656 1928.63 874.5 1925.08 874.5L1918.92 874.5C1915.37 874.5 1912.5 871.656 1912.5 868.147L1912.5 740.853C1912.5 737.345 1915.37 734.5 1918.92 734.5Z" stroke="#FFFFFF" stroke-width="3.19137" stroke-miterlimit="8" fill="#DADADA" fill-rule="evenodd"/><path d="M1912.5 760.5 1931.5 760.5 1931.5 848.5 1912.5 848.5Z" stroke="#FFFFFF" stroke-width="3.19137" stroke-miterlimit="8" fill="#1D1D1B" fill-rule="evenodd"/><path d="M1980.08 734.5C1983.63 734.5 1986.5 737.345 1986.5 740.853L1986.5 868.147C1986.5 871.656 1983.63 874.5 1980.08 874.5L1973.92 874.5C1970.37 874.5 1967.5 871.656 1967.5 868.147L1967.5 740.853C1967.5 737.345 1970.37 734.5 1973.92 734.5Z" stroke="#FFFFFF" stroke-width="3.19137" stroke-miterlimit="8" fill="#DADADA" fill-rule="evenodd"/><path d="M1967.5 760.5 1986.5 760.5 1986.5 848.5 1967.5 848.5Z" stroke="#FFFFFF" stroke-width="3.19137" stroke-miterlimit="8" fill="#1D1D1B" fill-rule="evenodd"/><path d="M2037.08 924.5C2040.63 924.5 2043.5 927.344 2043.5 930.853L2043.5 1058.15C2043.5 1061.66 2040.63 1064.5 2037.08 1064.5L2030.92 1064.5C2027.37 1064.5 2024.5 1061.66 2024.5 1058.15L2024.5 930.853C2024.5 927.344 2027.37 924.5 2030.92 924.5Z" stroke="#FFFFFF" stroke-width="3.19137" stroke-miterlimit="8" fill="#DADADA" fill-rule="evenodd"/><path d="M2024.5 950.5 2043.5 950.5 2043.5 1038.5 2024.5 1038.5Z" stroke="#FFFFFF" stroke-width="3.19137" stroke-miterlimit="8" fill="#1D1D1B" fill-rule="evenodd"/><path d="M2092.08 924.5C2095.63 924.5 2098.5 927.344 2098.5 930.853L2098.5 1058.15C2098.5 1061.66 2095.63 1064.5 2092.08 1064.5L2085.92 1064.5C2082.37 1064.5 2079.5 1061.66 2079.5 1058.15L2079.5 930.853C2079.5 927.344 2082.37 924.5 2085.92 924.5Z" stroke="#FFFFFF" stroke-width="3.19137" stroke-miterlimit="8" fill="#DADADA" fill-rule="evenodd"/><path d="M2079.5 950.5 2098.5 950.5 2098.5 1038.5 2079.5 1038.5Z" stroke="#FFFFFF" stroke-width="3.19137" stroke-miterlimit="8" fill="#1D1D1B" fill-rule="evenodd"/><path d="M2037.08 734.5C2040.63 734.5 2043.5 737.345 2043.5 740.853L2043.5 868.147C2043.5 871.656 2040.63 874.5 2037.08 874.5L2030.92 874.5C2027.37 874.5 2024.5 871.656 2024.5 868.147L2024.5 740.853C2024.5 737.345 2027.37 734.5 2030.92 734.5Z" stroke="#FFFFFF" stroke-width="3.19137" stroke-miterlimit="8" fill="#DADADA" fill-rule="evenodd"/><path d="M2024.5 760.5 2043.5 760.5 2043.5 848.5 2024.5 848.5Z" stroke="#FFFFFF" stroke-width="3.19137" stroke-miterlimit="8" fill="#1D1D1B" fill-rule="evenodd"/><path d="M2092.08 734.5C2095.63 734.5 2098.5 737.345 2098.5 740.853L2098.5 868.147C2098.5 871.656 2095.63 874.5 2092.08 874.5L2085.92 874.5C2082.37 874.5 2079.5 871.656 2079.5 868.147L2079.5 740.853C2079.5 737.345 2082.37 734.5 2085.92 734.5Z" stroke="#FFFFFF" stroke-width="3.19137" stroke-miterlimit="8" fill="#DADADA" fill-rule="evenodd"/><path d="M2079.5 760.5 2098.5 760.5 2098.5 848.5 2079.5 848.5Z" stroke="#FFFFFF" stroke-width="3.19137" stroke-miterlimit="8" fill="#1D1D1B" fill-rule="evenodd"/><path d="M2458.5 725.5 2483.5 725.5 2483.5 1075.5 2458.5 1075.5Z" stroke="#FFFFFF" stroke-width="3.21519" stroke-miterlimit="8" fill="#DADADA" fill-rule="evenodd"/><path d="M2151.08 924.5C2154.63 924.5 2157.5 927.344 2157.5 930.853L2157.5 1058.15C2157.5 1061.66 2154.63 1064.5 2151.08 1064.5L2144.92 1064.5C2141.37 1064.5 2138.5 1061.66 2138.5 1058.15L2138.5 930.853C2138.5 927.344 2141.37 924.5 2144.92 924.5Z" stroke="#FFFFFF" stroke-width="3.19137" stroke-miterlimit="8" fill="#DADADA" fill-rule="evenodd"/><path d="M2138.5 950.5 2157.5 950.5 2157.5 1038.5 2138.5 1038.5Z" stroke="#FFFFFF" stroke-width="3.19137" stroke-miterlimit="8" fill="#1D1D1B" fill-rule="evenodd"/><path d="M2206.08 924.5C2209.63 924.5 2212.5 927.344 2212.5 930.853L2212.5 1058.15C2212.5 1061.66 2209.63 1064.5 2206.08 1064.5L2199.92 1064.5C2196.37 1064.5 2193.5 1061.66 2193.5 1058.15L2193.5 930.853C2193.5 927.344 2196.37 924.5 2199.92 924.5Z" stroke="#FFFFFF" stroke-width="3.19137" stroke-miterlimit="8" fill="#DADADA" fill-rule="evenodd"/><path d="M2193.5 950.5 2212.5 950.5 2212.5 1038.5 2193.5 1038.5Z" stroke="#FFFFFF" stroke-width="3.19137" stroke-miterlimit="8" fill="#1D1D1B" fill-rule="evenodd"/><path d="M2151.08 734.5C2154.63 734.5 2157.5 737.345 2157.5 740.853L2157.5 868.147C2157.5 871.656 2154.63 874.5 2151.08 874.5L2144.92 874.5C2141.37 874.5 2138.5 871.656 2138.5 868.147L2138.5 740.853C2138.5 737.345 2141.37 734.5 2144.92 734.5Z" stroke="#FFFFFF" stroke-width="3.19137" stroke-miterlimit="8" fill="#DADADA" fill-rule="evenodd"/><path d="M2138.5 760.5 2157.5 760.5 2157.5 848.5 2138.5 848.5Z" stroke="#FFFFFF" stroke-width="3.19137" stroke-miterlimit="8" fill="#1D1D1B" fill-rule="evenodd"/><path d="M2206.08 734.5C2209.63 734.5 2212.5 737.345 2212.5 740.853L2212.5 868.147C2212.5 871.656 2209.63 874.5 2206.08 874.5L2199.92 874.5C2196.37 874.5 2193.5 871.656 2193.5 868.147L2193.5 740.853C2193.5 737.345 2196.37 734.5 2199.92 734.5Z" stroke="#FFFFFF" stroke-width="3.19137" stroke-miterlimit="8" fill="#DADADA" fill-rule="evenodd"/><path d="M2193.5 760.5 2212.5 760.5 2212.5 848.5 2193.5 848.5Z" stroke="#FFFFFF" stroke-width="3.19137" stroke-miterlimit="8" fill="#1D1D1B" fill-rule="evenodd"/><path d="M2262.08 924.5C2265.63 924.5 2268.5 927.344 2268.5 930.853L2268.5 1058.15C2268.5 1061.66 2265.63 1064.5 2262.08 1064.5L2255.92 1064.5C2252.37 1064.5 2249.5 1061.66 2249.5 1058.15L2249.5 930.853C2249.5 927.344 2252.37 924.5 2255.92 924.5Z" stroke="#FFFFFF" stroke-width="3.19137" stroke-miterlimit="8" fill="#DADADA" fill-rule="evenodd"/><path d="M2249.5 950.5 2268.5 950.5 2268.5 1038.5 2249.5 1038.5Z" stroke="#FFFFFF" stroke-width="3.19137" stroke-miterlimit="8" fill="#1D1D1B" fill-rule="evenodd"/><path d="M2317.08 924.5C2320.63 924.5 2323.5 927.344 2323.5 930.853L2323.5 1058.15C2323.5 1061.66 2320.63 1064.5 2317.08 1064.5L2310.92 1064.5C2307.37 1064.5 2304.5 1061.66 2304.5 1058.15L2304.5 930.853C2304.5 927.344 2307.37 924.5 2310.92 924.5Z" stroke="#FFFFFF" stroke-width="3.19137" stroke-miterlimit="8" fill="#DADADA" fill-rule="evenodd"/><path d="M2304.5 950.5 2323.5 950.5 2323.5 1038.5 2304.5 1038.5Z" stroke="#FFFFFF" stroke-width="3.19137" stroke-miterlimit="8" fill="#1D1D1B" fill-rule="evenodd"/><path d="M2262.08 734.5C2265.63 734.5 2268.5 737.345 2268.5 740.853L2268.5 868.147C2268.5 871.656 2265.63 874.5 2262.08 874.5L2255.92 874.5C2252.37 874.5 2249.5 871.656 2249.5 868.147L2249.5 740.853C2249.5 737.345 2252.37 734.5 2255.92 734.5Z" stroke="#FFFFFF" stroke-width="3.19137" stroke-miterlimit="8" fill="#DADADA" fill-rule="evenodd"/><path d="M2249.5 760.5 2268.5 760.5 2268.5 848.5 2249.5 848.5Z" stroke="#FFFFFF" stroke-width="3.19137" stroke-miterlimit="8" fill="#1D1D1B" fill-rule="evenodd"/><path d="M2317.08 734.5C2320.63 734.5 2323.5 737.345 2323.5 740.853L2323.5 868.147C2323.5 871.656 2320.63 874.5 2317.08 874.5L2310.92 874.5C2307.37 874.5 2304.5 871.656 2304.5 868.147L2304.5 740.853C2304.5 737.345 2307.37 734.5 2310.92 734.5Z" stroke="#FFFFFF" stroke-width="3.19137" stroke-miterlimit="8" fill="#DADADA" fill-rule="evenodd"/><path d="M2304.5 760.5 2323.5 760.5 2323.5 848.5 2304.5 848.5Z" stroke="#FFFFFF" stroke-width="3.19137" stroke-miterlimit="8" fill="#1D1D1B" fill-rule="evenodd"/><path d="M2370.08 924.5C2373.63 924.5 2376.5 927.344 2376.5 930.853L2376.5 1058.15C2376.5 1061.66 2373.63 1064.5 2370.08 1064.5L2363.92 1064.5C2360.37 1064.5 2357.5 1061.66 2357.5 1058.15L2357.5 930.853C2357.5 927.344 2360.37 924.5 2363.92 924.5Z" stroke="#FFFFFF" stroke-width="3.19137" stroke-miterlimit="8" fill="#DADADA" fill-rule="evenodd"/><path d="M2357.5 950.5 2376.5 950.5 2376.5 1038.5 2357.5 1038.5Z" stroke="#FFFFFF" stroke-width="3.19137" stroke-miterlimit="8" fill="#1D1D1B" fill-rule="evenodd"/><path d="M2425.08 924.5C2428.63 924.5 2431.5 927.344 2431.5 930.853L2431.5 1058.15C2431.5 1061.66 2428.63 1064.5 2425.08 1064.5L2418.92 1064.5C2415.37 1064.5 2412.5 1061.66 2412.5 1058.15L2412.5 930.853C2412.5 927.344 2415.37 924.5 2418.92 924.5Z" stroke="#FFFFFF" stroke-width="3.19137" stroke-miterlimit="8" fill="#DADADA" fill-rule="evenodd"/><path d="M2412.5 950.5 2431.5 950.5 2431.5 1038.5 2412.5 1038.5Z" stroke="#FFFFFF" stroke-width="3.19137" stroke-miterlimit="8" fill="#1D1D1B" fill-rule="evenodd"/><path d="M2370.08 734.5C2373.63 734.5 2376.5 737.345 2376.5 740.853L2376.5 868.147C2376.5 871.656 2373.63 874.5 2370.08 874.5L2363.92 874.5C2360.37 874.5 2357.5 871.656 2357.5 868.147L2357.5 740.853C2357.5 737.345 2360.37 734.5 2363.92 734.5Z" stroke="#FFFFFF" stroke-width="3.19137" stroke-miterlimit="8" fill="#DADADA" fill-rule="evenodd"/><path d="M2357.5 760.5 2376.5 760.5 2376.5 848.5 2357.5 848.5Z" stroke="#FFFFFF" stroke-width="3.19137" stroke-miterlimit="8" fill="#1D1D1B" fill-rule="evenodd"/><path d="M2425.08 734.5C2428.63 734.5 2431.5 737.345 2431.5 740.853L2431.5 868.147C2431.5 871.656 2428.63 874.5 2425.08 874.5L2418.92 874.5C2415.37 874.5 2412.5 871.656 2412.5 868.147L2412.5 740.853C2412.5 737.345 2415.37 734.5 2418.92 734.5Z" stroke="#FFFFFF" stroke-width="3.19137" stroke-miterlimit="8" fill="#DADADA" fill-rule="evenodd"/><path d="M2412.5 760.5 2431.5 760.5 2431.5 848.5 2412.5 848.5Z" stroke="#FFFFFF" stroke-width="3.19137" stroke-miterlimit="8" fill="#1D1D1B" fill-rule="evenodd"/><path d="M1676.5 1076.5 1608.5 1076.5 1608.5 726.5 1676.5 726.5 1676.5 755.713 1676.5 1076.5Z" stroke="#FFFFFF" stroke-width="0.848458" stroke-miterlimit="8" fill="#D2D6D9" fill-rule="evenodd"/><path d="M1676.5 726.5 1723.5 726.5 1723.5 1076.5 1676.5 1076.5Z" stroke="#FFFFFF" stroke-width="0.848458" stroke-miterlimit="8" fill="#D2D6D9" fill-rule="evenodd"/><path d="M1567.5 726.5 1608.22 726.775 1608.22 771.452 1660.5 818.072 1660.5 901.5 1608.35 953.274 1608.22 1076.5 1567.56 1076.5 1567.5 726.5Z" stroke="#FFFFFF" stroke-width="0.848458" stroke-miterlimit="8" fill="#D2D6D9" fill-rule="evenodd"/><path d="M1567.5 734.5 1608.5 734.5 1608.5 758.5 1567.5 758.5Z" stroke="#FFFFFF" stroke-width="0.848458" stroke-miterlimit="8" fill="#0C0C0C" fill-rule="evenodd"/><path d="M1567 887 1675 887" stroke="#1D1D1B" stroke-width="1.69656" stroke-miterlimit="8" fill="none" fill-rule="evenodd"/><path d="M1656.5 843.5C1656.5 858.964 1643.96 871.5 1628.5 871.5 1613.04 871.5 1600.5 858.964 1600.5 843.5 1600.5 828.036 1613.04 815.5 1628.5 815.5 1643.96 815.5 1656.5 828.036 1656.5 843.5Z" stroke="#1D1D1B" stroke-width="0.848458" stroke-miterlimit="8" fill="#FCEA10" fill-rule="evenodd"/><path d="M1649.5 843.5C1649.5 855.65 1639.87 865.5 1628 865.5 1616.13 865.5 1606.5 855.65 1606.5 843.5 1606.5 831.35 1616.13 821.5 1628 821.5 1639.87 821.5 1649.5 831.35 1649.5 843.5Z" stroke="#FFFFFF" stroke-width="0.848458" stroke-miterlimit="8" fill="#BE1622" fill-rule="evenodd"/><path d="M1597.5 836.5 1690.5 836.5 1690.5 852.5 1597.5 852.5Z" stroke="#FFFFFF" stroke-width="0.848458" stroke-miterlimit="8" fill="#BE1622" fill-rule="evenodd"/><path d="M1607.5 1076.5 1662.5 1076.5 1662.5 1103.5 1607.5 1103.5Z" stroke="#FFFFFF" stroke-width="0.831496" stroke-miterlimit="8" fill="#B2B2B2" fill-rule="evenodd"/><path d="M1613.5 1103.5 1656.5 1103.5 1656.5 1134.5 1613.5 1134.5Z" stroke="#FFFFFF" stroke-width="0.831496" stroke-miterlimit="8" fill="#706F6F" fill-rule="evenodd"/><path d="M1553.5 932.306 1553.5 917.5 1567.5 917.5 1567.5 937.5 1553.5 932.306Z" stroke="#FFFFFF" stroke-width="0.831496" stroke-miterlimit="8" fill="#D2D6D9" fill-rule="evenodd"/><path d="M1564.5 925.5C1564.5 927.709 1562.71 929.5 1560.5 929.5 1558.29 929.5 1556.5 927.709 1556.5 925.5 1556.5 923.291 1558.29 921.5 1560.5 921.5 1562.71 921.5 1564.5 923.291 1564.5 925.5Z" stroke="#FFFFFF" stroke-width="0.831496" stroke-miterlimit="8" fill="#DADADA" fill-rule="evenodd"/><path d="M1737.5 746.439 1737.5 852.341 1722.5 856.5 1722.5 741.5 1737.5 746.439Z" stroke="#FFFFFF" stroke-width="0.839797" stroke-miterlimit="8" fill="#D2D6D9" fill-rule="evenodd"/><path d="M1734.5 751.5C1734.5 753.71 1732.71 755.5 1730.5 755.5 1728.29 755.5 1726.5 753.71 1726.5 751.5 1726.5 749.291 1728.29 747.5 1730.5 747.5 1732.71 747.5 1734.5 749.291 1734.5 751.5Z" stroke="#FFFFFF" stroke-width="0.831496" stroke-miterlimit="8" fill="#DADADA" fill-rule="evenodd"/><path d="M1737.5 1061.7 1737.5 1076.5 1722.5 1076.5 1722.5 1056.5 1737.5 1061.7Z" stroke="#FFFFFF" stroke-width="0.848458" stroke-miterlimit="8" fill="#D2D6D9" fill-rule="evenodd"/><path d="M1734.5 1068.5C1734.5 1070.71 1732.71 1072.5 1730.5 1072.5 1728.29 1072.5 1726.5 1070.71 1726.5 1068.5 1726.5 1066.29 1728.29 1064.5 1730.5 1064.5 1732.71 1064.5 1734.5 1066.29 1734.5 1068.5Z" stroke="#FFFFFF" stroke-width="0.848458" stroke-miterlimit="8" fill="#DADADA" fill-rule="evenodd"/><path d="M1737.5 937.442 1737.5 1043.34 1722.5 1047.5 1722.5 932.5 1737.5 937.442Z" stroke="#FFFFFF" stroke-width="0.839797" stroke-miterlimit="8" fill="#D2D6D9" fill-rule="evenodd"/><path d="M1734.5 942.5C1734.5 944.709 1732.71 946.5 1730.5 946.5 1728.29 946.5 1726.5 944.709 1726.5 942.5 1726.5 940.291 1728.29 938.5 1730.5 938.5 1732.71 938.5 1734.5 940.291 1734.5 942.5Z" stroke="#FFFFFF" stroke-width="0.831496" stroke-miterlimit="8" fill="#DADADA" fill-rule="evenodd"/><path d="M1737.5 871.694 1737.5 886.5 1722.5 886.5 1722.5 866.5 1737.5 871.694Z" stroke="#FFFFFF" stroke-width="0.831496" stroke-miterlimit="8" fill="#D2D6D9" fill-rule="evenodd"/><path d="M1734.5 878.5C1734.5 880.709 1732.71 882.5 1730.5 882.5 1728.29 882.5 1726.5 880.709 1726.5 878.5 1726.5 876.291 1728.29 874.5 1730.5 874.5 1732.71 874.5 1734.5 876.291 1734.5 878.5Z" stroke="#FFFFFF" stroke-width="0.831496" stroke-miterlimit="8" fill="#DADADA" fill-rule="evenodd"/><path d="M1553.5 1057.17 1553.5 1047.04 1567.5 1042.5 1567.5 1062.5 1553.5 1057.17Z" stroke="#FFFFFF" stroke-width="0.848458" stroke-miterlimit="8" fill="#D2D6D9" fill-rule="evenodd"/><path d="M1564.5 1052.5C1564.5 1054.71 1562.71 1056.5 1560.5 1056.5 1558.29 1056.5 1556.5 1054.71 1556.5 1052.5 1556.5 1050.29 1558.29 1048.5 1560.5 1048.5 1562.71 1048.5 1564.5 1050.29 1564.5 1052.5Z" stroke="#FFFFFF" stroke-width="0.848458" stroke-miterlimit="8" fill="#DADADA" fill-rule="evenodd"/><path d="M1553.5 741.306 1553.5 726.5 1567.5 726.5 1567.5 746.5 1553.5 741.306Z" stroke="#FFFFFF" stroke-width="0.831496" stroke-miterlimit="8" fill="#D2D6D9" fill-rule="evenodd"/><path d="M1564.5 734.5C1564.5 736.709 1562.71 738.5 1560.5 738.5 1558.29 738.5 1556.5 736.709 1556.5 734.5 1556.5 732.291 1558.29 730.5 1560.5 730.5 1562.71 730.5 1564.5 732.291 1564.5 734.5Z" stroke="#FFFFFF" stroke-width="0.831496" stroke-miterlimit="8" fill="#DADADA" fill-rule="evenodd"/><path d="M1553.5 866.433 1553.5 856.809 1567.5 852.5 1567.5 871.5 1553.5 866.433Z" stroke="#FFFFFF" stroke-width="0.831496" stroke-miterlimit="8" fill="#D2D6D9" fill-rule="evenodd"/><path d="M1564.5 861.5C1564.5 863.71 1562.71 865.5 1560.5 865.5 1558.29 865.5 1556.5 863.71 1556.5 861.5 1556.5 859.291 1558.29 857.5 1560.5 857.5 1562.71 857.5 1564.5 859.291 1564.5 861.5Z" stroke="#FFFFFF" stroke-width="0.831496" stroke-miterlimit="8" fill="#DADADA" fill-rule="evenodd"/><path d="M1497.5 885.5 1457.5 885.5 1457.5 726.5 1497.5 726.5 1497.5 739.774 1497.5 885.5Z" stroke="#FFFFFF" stroke-width="0.992093" stroke-miterlimit="8" fill="#D2D6D9" fill-rule="evenodd"/><path d="M1457.5 734.5 1498.5 734.5 1498.5 758.5 1457.5 758.5Z" stroke="#FFFFFF" stroke-width="0.992093" stroke-miterlimit="8" fill="#0C0C0C" fill-rule="evenodd"/><path d="M1497.5 726.5 1553.5 726.5 1553.5 885.5 1497.5 885.5Z" stroke="#FFFFFF" stroke-width="0.992093" stroke-miterlimit="8" fill="#D2D6D9" fill-rule="evenodd"/><path d="M1486 772.5C1486 777.195 1482.19 781 1477.5 781 1472.81 781 1469 777.195 1469 772.5 1469 767.806 1472.81 764 1477.5 764 1482.19 764 1486 767.806 1486 772.5Z" stroke="#FFFFFF" stroke-width="2.475" stroke-miterlimit="8" fill="#1D1D1B" fill-rule="evenodd"/><path d="M1486 804.5C1486 809.195 1482.19 813 1477.5 813 1472.81 813 1469 809.195 1469 804.5 1469 799.806 1472.81 796 1477.5 796 1482.19 796 1486 799.806 1486 804.5Z" stroke="#FFFFFF" stroke-width="2.475" stroke-miterlimit="8" fill="#1D1D1B" fill-rule="evenodd"/><path d="M1486 836.5C1486 841.195 1482.19 845 1477.5 845 1472.81 845 1469 841.195 1469 836.5 1469 831.806 1472.81 828 1477.5 828 1482.19 828 1486 831.806 1486 836.5Z" stroke="#FFFFFF" stroke-width="2.475" stroke-miterlimit="8" fill="#1D1D1B" fill-rule="evenodd"/><path d="M1486 869.5C1486 874.195 1482.19 878 1477.5 878 1472.81 878 1469 874.195 1469 869.5 1469 864.806 1472.81 861 1477.5 861 1482.19 861 1486 864.806 1486 869.5Z" stroke="#FFFFFF" stroke-width="2.475" stroke-miterlimit="8" fill="#1D1D1B" fill-rule="evenodd"/><path d="M1515.5 758.5 1535.5 758.5 1535.5 785.5 1515.5 785.5Z" stroke="#FFFFFF" stroke-width="0.491175" stroke-miterlimit="8" fill="#1D1D1B" fill-rule="evenodd"/><path d="M1515.5 796.5 1535.5 796.5 1535.5 823.5 1515.5 823.5Z" stroke="#FFFFFF" stroke-width="0.491175" stroke-miterlimit="8" fill="#1D1D1B" fill-rule="evenodd"/><path d="M1515.5 834.5 1535.5 834.5 1535.5 861.5 1515.5 861.5Z" stroke="#FFFFFF" stroke-width="0.491175" stroke-miterlimit="8" fill="#1D1D1B" fill-rule="evenodd"/><path d="M1567.5 746.439 1567.5 852.341 1553.5 856.5 1553.5 741.5 1567.5 746.439Z" stroke="#FFFFFF" stroke-width="0.992093" stroke-miterlimit="8" fill="#D2D6D9" fill-rule="evenodd"/><path d="M1564.5 751.5C1564.5 753.709 1562.71 755.5 1560.5 755.5 1558.29 755.5 1556.5 753.709 1556.5 751.5 1556.5 749.291 1558.29 747.5 1560.5 747.5 1562.71 747.5 1564.5 749.291 1564.5 751.5Z" stroke="#FFFFFF" stroke-width="0.981988" stroke-miterlimit="8" fill="#DADADA" fill-rule="evenodd"/><path d="M1567.5 871.694 1567.5 886.5 1553.5 886.5 1553.5 866.5 1567.5 871.694Z" stroke="#FFFFFF" stroke-width="0.981988" stroke-miterlimit="8" fill="#D2D6D9" fill-rule="evenodd"/><path d="M1564.5 878.5C1564.5 880.709 1562.71 882.5 1560.5 882.5 1558.29 882.5 1556.5 880.709 1556.5 878.5 1556.5 876.291 1558.29 874.5 1560.5 874.5 1562.71 874.5 1564.5 876.291 1564.5 878.5Z" stroke="#FFFFFF" stroke-width="0.981988" stroke-miterlimit="8" fill="#DADADA" fill-rule="evenodd"/><path d="M1443.5 741.306 1443.5 726.5 1457.5 726.5 1457.5 746.5 1443.5 741.306Z" stroke="#FFFFFF" stroke-width="0.981988" stroke-miterlimit="8" fill="#D2D6D9" fill-rule="evenodd"/><path d="M1454.5 734.5C1454.5 736.709 1452.71 738.5 1450.5 738.5 1448.29 738.5 1446.5 736.709 1446.5 734.5 1446.5 732.291 1448.29 730.5 1450.5 730.5 1452.71 730.5 1454.5 732.291 1454.5 734.5Z" stroke="#FFFFFF" stroke-width="0.981988" stroke-miterlimit="8" fill="#DADADA" fill-rule="evenodd"/><path d="M1443.5 866.433 1443.5 856.809 1457.5 852.5 1457.5 871.5 1443.5 866.433Z" stroke="#FFFFFF" stroke-width="0.981988" stroke-miterlimit="8" fill="#D2D6D9" fill-rule="evenodd"/><path d="M1454.5 861.5C1454.5 863.709 1452.71 865.5 1450.5 865.5 1448.29 865.5 1446.5 863.709 1446.5 861.5 1446.5 859.291 1448.29 857.5 1450.5 857.5 1452.71 857.5 1454.5 859.291 1454.5 861.5Z" stroke="#FFFFFF" stroke-width="0.981988" stroke-miterlimit="8" fill="#DADADA" fill-rule="evenodd"/><path d="M1552.5 1077.5 1512.5 1077.5 1512.5 917.5 1552.5 917.5 1552.5 930.857 1552.5 1077.5Z" stroke="#FFFFFF" stroke-width="0.961417" stroke-miterlimit="8" fill="#D2D6D9" fill-rule="evenodd"/><path d="M1525.5 925.5 1546.5 925.5 1546.5 1067.5 1525.5 1067.5Z" stroke="#FFFFFF" stroke-width="0.903675" stroke-miterlimit="8" fill="#D2D6D9" fill-rule="evenodd"/><path d="M1567.5 937.445 1567.5 1043.34 1553.5 1047.5 1553.5 932.5 1567.5 937.445Z" stroke="#FFFFFF" stroke-width="0.970801" stroke-miterlimit="8" fill="#D2D6D9" fill-rule="evenodd"/><path d="M1564.5 942.5C1564.5 944.709 1562.71 946.5 1560.5 946.5 1558.29 946.5 1556.5 944.709 1556.5 942.5 1556.5 940.291 1558.29 938.5 1560.5 938.5 1562.71 938.5 1564.5 940.291 1564.5 942.5Z" stroke="#FFFFFF" stroke-width="0.961417" stroke-miterlimit="8" fill="#DADADA" fill-rule="evenodd"/><path d="M1567.5 1062.69 1567.5 1077.5 1552.5 1077.5 1552.5 1057.5 1567.5 1062.69Z" stroke="#FFFFFF" stroke-width="0.961417" stroke-miterlimit="8" fill="#D2D6D9" fill-rule="evenodd"/><path d="M1564.5 1069.5C1564.5 1071.71 1562.71 1073.5 1560.5 1073.5 1558.29 1073.5 1556.5 1071.71 1556.5 1069.5 1556.5 1067.29 1558.29 1065.5 1560.5 1065.5 1562.71 1065.5 1564.5 1067.29 1564.5 1069.5Z" stroke="#FFFFFF" stroke-width="0.961417" stroke-miterlimit="8" fill="#DADADA" fill-rule="evenodd"/><path d="M1498.5 932.306 1498.5 917.5 1512.5 917.5 1512.5 937.5 1498.5 932.306Z" stroke="#FFFFFF" stroke-width="0.961417" stroke-miterlimit="8" fill="#D2D6D9" fill-rule="evenodd"/><path d="M1509.5 925.5C1509.5 927.709 1507.71 929.5 1505.5 929.5 1503.29 929.5 1501.5 927.709 1501.5 925.5 1501.5 923.291 1503.29 921.5 1505.5 921.5 1507.71 921.5 1509.5 923.291 1509.5 925.5Z" stroke="#FFFFFF" stroke-width="0.961417" stroke-miterlimit="8" fill="#DADADA" fill-rule="evenodd"/><path d="M1498.5 1057.43 1498.5 1047.81 1512.5 1043.5 1512.5 1062.5 1498.5 1057.43Z" stroke="#FFFFFF" stroke-width="0.961417" stroke-miterlimit="8" fill="#D2D6D9" fill-rule="evenodd"/><path d="M1509.5 1052.5C1509.5 1054.71 1507.71 1056.5 1505.5 1056.5 1503.29 1056.5 1501.5 1054.71 1501.5 1052.5 1501.5 1050.29 1503.29 1048.5 1505.5 1048.5 1507.71 1048.5 1509.5 1050.29 1509.5 1052.5Z" stroke="#FFFFFF" stroke-width="0.961417" stroke-miterlimit="8" fill="#DADADA" fill-rule="evenodd"/><path d="M1497.5 1077.5 1457.5 1077.5 1457.5 917.5 1497.5 917.5 1497.5 930.857 1497.5 1077.5Z" stroke="#FFFFFF" stroke-width="0.961417" stroke-miterlimit="8" fill="#D2D6D9" fill-rule="evenodd"/><path d="M1470.5 925.5 1491.5 925.5 1491.5 1067.5 1470.5 1067.5Z" stroke="#FFFFFF" stroke-width="0.903675" stroke-miterlimit="8" fill="#D2D6D9" fill-rule="evenodd"/><path d="M1512.5 937.445 1512.5 1043.34 1497.5 1047.5 1497.5 932.5 1512.5 937.445Z" stroke="#FFFFFF" stroke-width="0.970801" stroke-miterlimit="8" fill="#D2D6D9" fill-rule="evenodd"/><path d="M1509.5 942.5C1509.5 944.709 1507.71 946.5 1505.5 946.5 1503.29 946.5 1501.5 944.709 1501.5 942.5 1501.5 940.291 1503.29 938.5 1505.5 938.5 1507.71 938.5 1509.5 940.291 1509.5 942.5Z" stroke="#FFFFFF" stroke-width="0.961417" stroke-miterlimit="8" fill="#DADADA" fill-rule="evenodd"/><path d="M1512.5 1062.69 1512.5 1077.5 1497.5 1077.5 1497.5 1057.5 1512.5 1062.69Z" stroke="#FFFFFF" stroke-width="0.961417" stroke-miterlimit="8" fill="#D2D6D9" fill-rule="evenodd"/><path d="M1508.5 1069.5C1508.5 1071.71 1506.93 1073.5 1505 1073.5 1503.07 1073.5 1501.5 1071.71 1501.5 1069.5 1501.5 1067.29 1503.07 1065.5 1505 1065.5 1506.93 1065.5 1508.5 1067.29 1508.5 1069.5Z" stroke="#FFFFFF" stroke-width="0.961417" stroke-miterlimit="8" fill="#DADADA" fill-rule="evenodd"/><path d="M1443.5 932.306 1443.5 917.5 1457.5 917.5 1457.5 937.5 1443.5 932.306Z" stroke="#FFFFFF" stroke-width="0.961417" stroke-miterlimit="8" fill="#D2D6D9" fill-rule="evenodd"/><path d="M1454.5 925.5C1454.5 927.709 1452.71 929.5 1450.5 929.5 1448.29 929.5 1446.5 927.709 1446.5 925.5 1446.5 923.291 1448.29 921.5 1450.5 921.5 1452.71 921.5 1454.5 923.291 1454.5 925.5Z" stroke="#FFFFFF" stroke-width="0.961417" stroke-miterlimit="8" fill="#DADADA" fill-rule="evenodd"/><path d="M1443.5 1057.43 1443.5 1047.81 1457.5 1043.5 1457.5 1062.5 1443.5 1057.43Z" stroke="#FFFFFF" stroke-width="0.961417" stroke-miterlimit="8" fill="#D2D6D9" fill-rule="evenodd"/><path d="M1454.5 1052.5C1454.5 1054.71 1452.71 1056.5 1450.5 1056.5 1448.29 1056.5 1446.5 1054.71 1446.5 1052.5 1446.5 1050.29 1448.29 1048.5 1450.5 1048.5 1452.71 1048.5 1454.5 1050.29 1454.5 1052.5Z" stroke="#FFFFFF" stroke-width="0.961417" stroke-miterlimit="8" fill="#DADADA" fill-rule="evenodd"/><path d="M1778.5 1076.5 1737.5 1076.5 1737.5 726.5 1778.5 726.5 1778.5 755.715 1778.5 1076.5Z" stroke="#FFFFFF" stroke-width="0.995341" stroke-miterlimit="8" fill="#D2D6D9" fill-rule="evenodd"/><path d="M1737.5 734.5 1778.5 734.5 1778.5 758.5 1737.5 758.5Z" stroke="#FFFFFF" stroke-width="0.995341" stroke-miterlimit="8" fill="#0C0C0C" fill-rule="evenodd"/><path d="M1777.5 726.5 1833.5 726.5 1833.5 1076.5 1777.5 1076.5Z" stroke="#FFFFFF" stroke-width="0.995341" stroke-miterlimit="8" fill="#D2D6D9" fill-rule="evenodd"/><path d="M1738.5 791.5 1777.5 791.5 1777.5 812.5 1738.5 812.5Z" stroke="#FFFFFF" stroke-width="0.995341" stroke-miterlimit="8" fill="#FCEA10" fill-rule="evenodd"/><path d="M1744.5 812.5 1771.5 812.5 1771.5 828.5 1744.5 828.5Z" stroke="#FFFFFF" stroke-width="0.995341" stroke-miterlimit="8" fill="#9D9D9C" fill-rule="evenodd"/><path d="M1744.5 828.5 1771.5 828.5 1771.5 836.5 1744.5 836.5Z" stroke="#FFFFFF" stroke-width="0.995341" stroke-miterlimit="8" fill="#BE1622" fill-rule="evenodd"/><path d="M1833.5 1076.5 1793.5 1076.5 1793.5 726.5 1833.5 726.5 1833.5 755.714 1833.5 1076.5Z" stroke="#FFFFFF" stroke-width="0.995341" stroke-miterlimit="8" fill="#D2D6D9" fill-rule="evenodd"/><path d="M1833.5 727.5 1892.5 727.5 1892.5 1076.5 1833.5 1076.5Z" stroke="#FFFFFF" stroke-width="0.995341" stroke-miterlimit="8" fill="#D2D6D9" fill-rule="evenodd"/><path d="M1722.5 931.564 1722.5 917.5 1737.5 917.5 1737.5 936.5 1722.5 931.564Z" stroke="#FFFFFF" stroke-width="0.975853" stroke-miterlimit="8" fill="#D2D6D9" fill-rule="evenodd"/><path d="M1734.5 925C1734.5 926.933 1732.71 928.5 1730.5 928.5 1728.29 928.5 1726.5 926.933 1726.5 925 1726.5 923.067 1728.29 921.5 1730.5 921.5 1732.71 921.5 1734.5 923.067 1734.5 925Z" stroke="#FFFFFF" stroke-width="0.975853" stroke-miterlimit="8" fill="#DADADA" fill-rule="evenodd"/><path d="M1907.5 746.402 1907.5 851.371 1892.5 855.5 1892.5 741.5 1907.5 746.402Z" stroke="#FFFFFF" stroke-width="0.985597" stroke-miterlimit="8" fill="#D2D6D9" fill-rule="evenodd"/><path d="M1903.5 751.5C1903.5 753.709 1901.71 755.5 1899.5 755.5 1897.29 755.5 1895.5 753.709 1895.5 751.5 1895.5 749.291 1897.29 747.5 1899.5 747.5 1901.71 747.5 1903.5 749.291 1903.5 751.5Z" stroke="#FFFFFF" stroke-width="0.975853" stroke-miterlimit="8" fill="#DADADA" fill-rule="evenodd"/><path d="M1907.5 1061.69 1907.5 1076.5 1892.5 1076.5 1892.5 1056.5 1907.5 1061.69Z" stroke="#FFFFFF" stroke-width="0.995341" stroke-miterlimit="8" fill="#D2D6D9" fill-rule="evenodd"/><path d="M1903.5 1068.5C1903.5 1070.71 1901.71 1072.5 1899.5 1072.5 1897.29 1072.5 1895.5 1070.71 1895.5 1068.5 1895.5 1066.29 1897.29 1064.5 1899.5 1064.5 1901.71 1064.5 1903.5 1066.29 1903.5 1068.5Z" stroke="#FFFFFF" stroke-width="0.995341" stroke-miterlimit="8" fill="#DADADA" fill-rule="evenodd"/><path d="M1907.5 936.448 1907.5 1042.34 1892.5 1046.5 1892.5 931.5 1907.5 936.448Z" stroke="#FFFFFF" stroke-width="0.985597" stroke-miterlimit="8" fill="#D2D6D9" fill-rule="evenodd"/><path d="M1903.5 942C1903.5 943.933 1901.71 945.5 1899.5 945.5 1897.29 945.5 1895.5 943.933 1895.5 942 1895.5 940.067 1897.29 938.5 1899.5 938.5 1901.71 938.5 1903.5 940.067 1903.5 942Z" stroke="#FFFFFF" stroke-width="0.975853" stroke-miterlimit="8" fill="#DADADA" fill-rule="evenodd"/><path d="M1907.5 871.436 1907.5 885.5 1892.5 885.5 1892.5 866.5 1907.5 871.436Z" stroke="#FFFFFF" stroke-width="0.975853" stroke-miterlimit="8" fill="#D2D6D9" fill-rule="evenodd"/><path d="M1903.5 878C1903.5 879.933 1901.71 881.5 1899.5 881.5 1897.29 881.5 1895.5 879.933 1895.5 878 1895.5 876.067 1897.29 874.5 1899.5 874.5 1901.71 874.5 1903.5 876.067 1903.5 878Z" stroke="#FFFFFF" stroke-width="0.975853" stroke-miterlimit="8" fill="#DADADA" fill-rule="evenodd"/><path d="M1722.5 1056.43 1722.5 1046.8 1737.5 1042.5 1737.5 1061.5 1722.5 1056.43Z" stroke="#FFFFFF" stroke-width="0.995341" stroke-miterlimit="8" fill="#D2D6D9" fill-rule="evenodd"/><path d="M1734.5 1051.5C1734.5 1053.71 1732.71 1055.5 1730.5 1055.5 1728.29 1055.5 1726.5 1053.71 1726.5 1051.5 1726.5 1049.29 1728.29 1047.5 1730.5 1047.5 1732.71 1047.5 1734.5 1049.29 1734.5 1051.5Z" stroke="#FFFFFF" stroke-width="0.995341" stroke-miterlimit="8" fill="#DADADA" fill-rule="evenodd"/><path d="M1722.5 741.31 1722.5 726.5 1737.5 726.5 1737.5 746.5 1722.5 741.31Z" stroke="#FFFFFF" stroke-width="0.975853" stroke-miterlimit="8" fill="#D2D6D9" fill-rule="evenodd"/><path d="M1734.5 734.5C1734.5 736.709 1732.71 738.5 1730.5 738.5 1728.29 738.5 1726.5 736.709 1726.5 734.5 1726.5 732.291 1728.29 730.5 1730.5 730.5 1732.71 730.5 1734.5 732.291 1734.5 734.5Z" stroke="#FFFFFF" stroke-width="0.975853" stroke-miterlimit="8" fill="#DADADA" fill-rule="evenodd"/><path d="M1722.5 866.167 1722.5 856.036 1737.5 851.5 1737.5 871.5 1722.5 866.167Z" stroke="#FFFFFF" stroke-width="0.975853" stroke-miterlimit="8" fill="#D2D6D9" fill-rule="evenodd"/><path d="M1734.5 861.5C1734.5 863.709 1732.71 865.5 1730.5 865.5 1728.29 865.5 1726.5 863.709 1726.5 861.5 1726.5 859.291 1728.29 857.5 1730.5 857.5 1732.71 857.5 1734.5 859.291 1734.5 861.5Z" stroke="#FFFFFF" stroke-width="0.975853" stroke-miterlimit="8" fill="#DADADA" fill-rule="evenodd"/><path d="M1947.5 1075.5 1907.5 1075.5 1907.5 726.5 1947.5 726.5 1947.5 755.632 1947.5 1075.5Z" stroke="#FFFFFF" stroke-width="0.992454" stroke-miterlimit="8" fill="#D2D6D9" fill-rule="evenodd"/><path d="M1907.5 735.5 1947.5 735.5 1947.5 759.5 1907.5 759.5Z" stroke="#FFFFFF" stroke-width="0.992454" stroke-miterlimit="8" fill="#0C0C0C" fill-rule="evenodd"/><path d="M1947.5 726.5 2003.5 726.5 2003.5 1075.5 1947.5 1075.5Z" stroke="#FFFFFF" stroke-width="0.992454" stroke-miterlimit="8" fill="#D2D6D9" fill-rule="evenodd"/><path d="M1907.5 790.5 1947.5 790.5 1947.5 810.5 1907.5 810.5Z" stroke="#FFFFFF" stroke-width="0.992454" stroke-miterlimit="8" fill="#FCEA10" fill-rule="evenodd"/><path d="M1914.5 810.5 1940.5 810.5 1940.5 827.5 1914.5 827.5Z" stroke="#FFFFFF" stroke-width="0.992454" stroke-miterlimit="8" fill="#9D9D9C" fill-rule="evenodd"/><path d="M1914.5 827.5 1940.5 827.5 1940.5 835.5 1914.5 835.5Z" stroke="#FFFFFF" stroke-width="0.992454" stroke-miterlimit="8" fill="#BE1622" fill-rule="evenodd"/><path d="M1907.5 1000.5 1946.5 1000.5 1946.5 1020.5 1907.5 1020.5Z" stroke="#FFFFFF" stroke-width="0.992454" stroke-miterlimit="8" fill="#FCEA10" fill-rule="evenodd"/><path d="M1914.5 1020.5 1940.5 1020.5 1940.5 1037.5 1914.5 1037.5Z" stroke="#FFFFFF" stroke-width="0.992454" stroke-miterlimit="8" fill="#9D9D9C" fill-rule="evenodd"/><path d="M1914.5 1037.5 1940.5 1037.5 1940.5 1045.5 1914.5 1045.5Z" stroke="#FFFFFF" stroke-width="0.992454" stroke-miterlimit="8" fill="#BE1622" fill-rule="evenodd"/><path d="M1941.5 735.5 1946.5 735.5 1946.5 759.5 1941.5 759.5Z" stroke="#FFFFFF" stroke-width="0.924245" stroke-miterlimit="8" fill="#FCEA10" fill-rule="evenodd"/><path d="M1907.5 735.5 1913.5 735.5 1913.5 759.5 1907.5 759.5Z" stroke="#FFFFFF" stroke-width="0.943734" stroke-miterlimit="8" fill="#FCEA10" fill-rule="evenodd"/><path d="M1892.5 931.304 1892.5 916.5 1907.5 916.5 1907.5 936.5 1892.5 931.304Z" stroke="#FFFFFF" stroke-width="0.972966" stroke-miterlimit="8" fill="#D2D6D9" fill-rule="evenodd"/><path d="M1903.5 924.5C1903.5 926.709 1901.93 928.5 1900 928.5 1898.07 928.5 1896.5 926.709 1896.5 924.5 1896.5 922.291 1898.07 920.5 1900 920.5 1901.93 920.5 1903.5 922.291 1903.5 924.5Z" stroke="#FFFFFF" stroke-width="0.972966" stroke-miterlimit="8" fill="#DADADA" fill-rule="evenodd"/><path d="M2017.5 746.402 2017.5 851.372 2003.5 855.5 2003.5 741.5 2017.5 746.402Z" stroke="#FFFFFF" stroke-width="0.98271" stroke-miterlimit="8" fill="#D2D6D9" fill-rule="evenodd"/><path d="M2014.5 751.5C2014.5 753.709 2012.71 755.5 2010.5 755.5 2008.29 755.5 2006.5 753.709 2006.5 751.5 2006.5 749.291 2008.29 747.5 2010.5 747.5 2012.71 747.5 2014.5 749.291 2014.5 751.5Z" stroke="#FFFFFF" stroke-width="0.972966" stroke-miterlimit="8" fill="#DADADA" fill-rule="evenodd"/><path d="M2018.5 1060.69 2018.5 1075.5 2003.5 1075.5 2003.5 1055.5 2018.5 1060.69Z" stroke="#FFFFFF" stroke-width="0.992454" stroke-miterlimit="8" fill="#D2D6D9" fill-rule="evenodd"/><path d="M2014.5 1067.5C2014.5 1069.71 2012.71 1071.5 2010.5 1071.5 2008.29 1071.5 2006.5 1069.71 2006.5 1067.5 2006.5 1065.29 2008.29 1063.5 2010.5 1063.5 2012.71 1063.5 2014.5 1065.29 2014.5 1067.5Z" stroke="#FFFFFF" stroke-width="0.992454" stroke-miterlimit="8" fill="#DADADA" fill-rule="evenodd"/><path d="M2017.5 936.405 2017.5 1041.37 2003.5 1045.5 2003.5 931.5 2017.5 936.405Z" stroke="#FFFFFF" stroke-width="0.98271" stroke-miterlimit="8" fill="#D2D6D9" fill-rule="evenodd"/><path d="M2014.5 941.5C2014.5 943.709 2012.71 945.5 2010.5 945.5 2008.29 945.5 2006.5 943.709 2006.5 941.5 2006.5 939.291 2008.29 937.5 2010.5 937.5 2012.71 937.5 2014.5 939.291 2014.5 941.5Z" stroke="#FFFFFF" stroke-width="0.972966" stroke-miterlimit="8" fill="#DADADA" fill-rule="evenodd"/><path d="M2017.5 871.436 2017.5 885.5 2003.5 885.5 2003.5 866.5 2017.5 871.436Z" stroke="#FFFFFF" stroke-width="0.972966" stroke-miterlimit="8" fill="#D2D6D9" fill-rule="evenodd"/><path d="M2014.5 878C2014.5 879.933 2012.71 881.5 2010.5 881.5 2008.29 881.5 2006.5 879.933 2006.5 878 2006.5 876.067 2008.29 874.5 2010.5 874.5 2012.71 874.5 2014.5 876.067 2014.5 878Z" stroke="#FFFFFF" stroke-width="0.972966" stroke-miterlimit="8" fill="#DADADA" fill-rule="evenodd"/><path d="M1892.5 1055.43 1892.5 1045.8 1907.5 1041.5 1907.5 1060.5 1892.5 1055.43Z" stroke="#FFFFFF" stroke-width="0.992454" stroke-miterlimit="8" fill="#D2D6D9" fill-rule="evenodd"/><path d="M1903.5 1051.5C1903.5 1053.71 1901.93 1055.5 1900 1055.5 1898.07 1055.5 1896.5 1053.71 1896.5 1051.5 1896.5 1049.29 1898.07 1047.5 1900 1047.5 1901.93 1047.5 1903.5 1049.29 1903.5 1051.5Z" stroke="#FFFFFF" stroke-width="0.992454" stroke-miterlimit="8" fill="#DADADA" fill-rule="evenodd"/><path d="M1892.5 741.304 1892.5 726.5 1907.5 726.5 1907.5 746.5 1892.5 741.304Z" stroke="#FFFFFF" stroke-width="0.972966" stroke-miterlimit="8" fill="#D2D6D9" fill-rule="evenodd"/><path d="M1903.5 734.5C1903.5 736.709 1901.93 738.5 1900 738.5 1898.07 738.5 1896.5 736.709 1896.5 734.5 1896.5 732.291 1898.07 730.5 1900 730.5 1901.93 730.5 1903.5 732.291 1903.5 734.5Z" stroke="#FFFFFF" stroke-width="0.972966" stroke-miterlimit="8" fill="#DADADA" fill-rule="evenodd"/><path d="M1892.5 866.167 1892.5 856.036 1907.5 851.5 1907.5 871.5 1892.5 866.167Z" stroke="#FFFFFF" stroke-width="0.972966" stroke-miterlimit="8" fill="#D2D6D9" fill-rule="evenodd"/><path d="M1903.5 861.5C1903.5 863.709 1901.93 865.5 1900 865.5 1898.07 865.5 1896.5 863.709 1896.5 861.5 1896.5 859.291 1898.07 857.5 1900 857.5 1901.93 857.5 1903.5 859.291 1903.5 861.5Z" stroke="#FFFFFF" stroke-width="0.972966" stroke-miterlimit="8" fill="#DADADA" fill-rule="evenodd"/><path d="M2057.5 1075.5 2017.5 1075.5 2017.5 726.5 2057.5 726.5 2057.5 755.632 2057.5 1075.5Z" stroke="#FFFFFF" stroke-width="0.992454" stroke-miterlimit="8" fill="#D2D6D9" fill-rule="evenodd"/><path d="M2017.5 735.5 2057.5 735.5 2057.5 759.5 2017.5 759.5Z" stroke="#FFFFFF" stroke-width="0.992454" stroke-miterlimit="8" fill="#0C0C0C" fill-rule="evenodd"/><path d="M2057.5 726.5 2113.5 726.5 2113.5 1075.5 2057.5 1075.5Z" stroke="#FFFFFF" stroke-width="0.992454" stroke-miterlimit="8" fill="#D2D6D9" fill-rule="evenodd"/><path d="M2017.5 790.5 2057.5 790.5 2057.5 810.5 2017.5 810.5Z" stroke="#FFFFFF" stroke-width="0.992454" stroke-miterlimit="8" fill="#FCEA10" fill-rule="evenodd"/><path d="M2024.5 810.5 2050.5 810.5 2050.5 827.5 2024.5 827.5Z" stroke="#FFFFFF" stroke-width="0.992454" stroke-miterlimit="8" fill="#9D9D9C" fill-rule="evenodd"/><path d="M2024.5 827.5 2050.5 827.5 2050.5 835.5 2024.5 835.5Z" stroke="#FFFFFF" stroke-width="0.992454" stroke-miterlimit="8" fill="#BE1622" fill-rule="evenodd"/><path d="M2017.5 1000.5 2056.5 1000.5 2056.5 1020.5 2017.5 1020.5Z" stroke="#FFFFFF" stroke-width="0.992454" stroke-miterlimit="8" fill="#FCEA10" fill-rule="evenodd"/><path d="M2023.5 1020.5 2050.5 1020.5 2050.5 1037.5 2023.5 1037.5Z" stroke="#FFFFFF" stroke-width="0.992454" stroke-miterlimit="8" fill="#9D9D9C" fill-rule="evenodd"/><path d="M2023.5 1037.5 2050.5 1037.5 2050.5 1045.5 2023.5 1045.5Z" stroke="#FFFFFF" stroke-width="0.992454" stroke-miterlimit="8" fill="#BE1622" fill-rule="evenodd"/><path d="M2051.5 735.5 2056.5 735.5 2056.5 759.5 2051.5 759.5Z" stroke="#FFFFFF" stroke-width="0.924245" stroke-miterlimit="8" fill="#FCEA10" fill-rule="evenodd"/><path d="M2017.5 735.5 2023.5 735.5 2023.5 759.5 2017.5 759.5Z" stroke="#FFFFFF" stroke-width="0.943734" stroke-miterlimit="8" fill="#FCEA10" fill-rule="evenodd"/><path d="M2002.5 931.304 2002.5 916.5 2017.5 916.5 2017.5 936.5 2002.5 931.304Z" stroke="#FFFFFF" stroke-width="0.972966" stroke-miterlimit="8" fill="#D2D6D9" fill-rule="evenodd"/><path d="M2013.5 924.5C2013.5 926.709 2011.93 928.5 2010 928.5 2008.07 928.5 2006.5 926.709 2006.5 924.5 2006.5 922.291 2008.07 920.5 2010 920.5 2011.93 920.5 2013.5 922.291 2013.5 924.5Z" stroke="#FFFFFF" stroke-width="0.972966" stroke-miterlimit="8" fill="#DADADA" fill-rule="evenodd"/><path d="M2127.5 746.402 2127.5 851.372 2113.5 855.5 2113.5 741.5 2127.5 746.402Z" stroke="#FFFFFF" stroke-width="0.98271" stroke-miterlimit="8" fill="#D2D6D9" fill-rule="evenodd"/><path d="M2124.5 751.5C2124.5 753.709 2122.71 755.5 2120.5 755.5 2118.29 755.5 2116.5 753.709 2116.5 751.5 2116.5 749.291 2118.29 747.5 2120.5 747.5 2122.71 747.5 2124.5 749.291 2124.5 751.5Z" stroke="#FFFFFF" stroke-width="0.972966" stroke-miterlimit="8" fill="#DADADA" fill-rule="evenodd"/><path d="M2127.5 1060.69 2127.5 1075.5 2113.5 1075.5 2113.5 1055.5 2127.5 1060.69Z" stroke="#FFFFFF" stroke-width="0.992454" stroke-miterlimit="8" fill="#D2D6D9" fill-rule="evenodd"/><path d="M2124.5 1067.5C2124.5 1069.71 2122.71 1071.5 2120.5 1071.5 2118.29 1071.5 2116.5 1069.71 2116.5 1067.5 2116.5 1065.29 2118.29 1063.5 2120.5 1063.5 2122.71 1063.5 2124.5 1065.29 2124.5 1067.5Z" stroke="#FFFFFF" stroke-width="0.992454" stroke-miterlimit="8" fill="#DADADA" fill-rule="evenodd"/><path d="M2127.5 936.405 2127.5 1041.37 2113.5 1045.5 2113.5 931.5 2127.5 936.405Z" stroke="#FFFFFF" stroke-width="0.98271" stroke-miterlimit="8" fill="#D2D6D9" fill-rule="evenodd"/><path d="M2124.5 941.5C2124.5 943.709 2122.71 945.5 2120.5 945.5 2118.29 945.5 2116.5 943.709 2116.5 941.5 2116.5 939.291 2118.29 937.5 2120.5 937.5 2122.71 937.5 2124.5 939.291 2124.5 941.5Z" stroke="#FFFFFF" stroke-width="0.972966" stroke-miterlimit="8" fill="#DADADA" fill-rule="evenodd"/><path d="M2127.5 871.436 2127.5 885.5 2113.5 885.5 2113.5 866.5 2127.5 871.436Z" stroke="#FFFFFF" stroke-width="0.972966" stroke-miterlimit="8" fill="#D2D6D9" fill-rule="evenodd"/><path d="M2124.5 878C2124.5 879.933 2122.71 881.5 2120.5 881.5 2118.29 881.5 2116.5 879.933 2116.5 878 2116.5 876.067 2118.29 874.5 2120.5 874.5 2122.71 874.5 2124.5 876.067 2124.5 878Z" stroke="#FFFFFF" stroke-width="0.972966" stroke-miterlimit="8" fill="#DADADA" fill-rule="evenodd"/><path d="M2002.5 1055.43 2002.5 1045.8 2017.5 1041.5 2017.5 1060.5 2002.5 1055.43Z" stroke="#FFFFFF" stroke-width="0.992454" stroke-miterlimit="8" fill="#D2D6D9" fill-rule="evenodd"/><path d="M2013.5 1051.5C2013.5 1053.71 2011.71 1055.5 2009.5 1055.5 2007.29 1055.5 2005.5 1053.71 2005.5 1051.5 2005.5 1049.29 2007.29 1047.5 2009.5 1047.5 2011.71 1047.5 2013.5 1049.29 2013.5 1051.5Z" stroke="#FFFFFF" stroke-width="0.992454" stroke-miterlimit="8" fill="#DADADA" fill-rule="evenodd"/><path d="M2002.5 741.304 2002.5 726.5 2017.5 726.5 2017.5 746.5 2002.5 741.304Z" stroke="#FFFFFF" stroke-width="0.972966" stroke-miterlimit="8" fill="#D2D6D9" fill-rule="evenodd"/><path d="M2013.5 734.5C2013.5 736.709 2011.93 738.5 2010 738.5 2008.07 738.5 2006.5 736.709 2006.5 734.5 2006.5 732.291 2008.07 730.5 2010 730.5 2011.93 730.5 2013.5 732.291 2013.5 734.5Z" stroke="#FFFFFF" stroke-width="0.972966" stroke-miterlimit="8" fill="#DADADA" fill-rule="evenodd"/><path d="M2002.5 866.167 2002.5 856.036 2017.5 851.5 2017.5 871.5 2002.5 866.167Z" stroke="#FFFFFF" stroke-width="0.972966" stroke-miterlimit="8" fill="#D2D6D9" fill-rule="evenodd"/><path d="M2013.5 861.5C2013.5 863.709 2011.93 865.5 2010 865.5 2008.07 865.5 2006.5 863.709 2006.5 861.5 2006.5 859.291 2008.07 857.5 2010 857.5 2011.93 857.5 2013.5 859.291 2013.5 861.5Z" stroke="#FFFFFF" stroke-width="0.972966" stroke-miterlimit="8" fill="#DADADA" fill-rule="evenodd"/><path d="M2169.5 1075.5 2128.5 1075.5 2128.5 725.5 2169.5 725.5 2169.5 754.716 2169.5 1075.5Z" stroke="#FFFFFF" stroke-width="1.10794" stroke-miterlimit="8" fill="#D2D6D9" fill-rule="evenodd"/><path d="M2128.5 733.5 2169.5 733.5 2169.5 757.5 2128.5 757.5Z" stroke="#FFFFFF" stroke-width="1.10794" stroke-miterlimit="8" fill="#0C0C0C" fill-rule="evenodd"/><path d="M2168.5 725.5 2224.5 725.5 2224.5 1075.5 2168.5 1075.5Z" stroke="#FFFFFF" stroke-width="1.10794" stroke-miterlimit="8" fill="#D2D6D9" fill-rule="evenodd"/><path d="M2129.5 788.5 2168.5 788.5 2168.5 809.5 2129.5 809.5Z" stroke="#FFFFFF" stroke-width="1.10794" stroke-miterlimit="8" fill="#FCEA10" fill-rule="evenodd"/><path d="M2135.5 809.5 2162.5 809.5 2162.5 826.5 2135.5 826.5Z" stroke="#FFFFFF" stroke-width="1.10794" stroke-miterlimit="8" fill="#9D9D9C" fill-rule="evenodd"/><path d="M2135.5 826.5 2162.5 826.5 2162.5 834.5 2135.5 834.5Z" stroke="#FFFFFF" stroke-width="1.10794" stroke-miterlimit="8" fill="#BE1622" fill-rule="evenodd"/><path d="M2129.5 788.5 2168.5 788.5 2168.5 809.5 2129.5 809.5Z" stroke="#FFFFFF" stroke-width="1.10794" stroke-miterlimit="8" fill="#FCEA10" fill-rule="evenodd"/><path d="M2135.5 809.5 2162.5 809.5 2162.5 826.5 2135.5 826.5Z" stroke="#FFFFFF" stroke-width="1.10794" stroke-miterlimit="8" fill="#9D9D9C" fill-rule="evenodd"/><path d="M2135.5 826.5 2162.5 826.5 2162.5 834.5 2135.5 834.5Z" stroke="#FFFFFF" stroke-width="1.10794" stroke-miterlimit="8" fill="#BE1622" fill-rule="evenodd"/><path d="M2114.5 930.564 2114.5 916.5 2128.5 916.5 2128.5 935.5 2114.5 930.564Z" stroke="#FFFFFF" stroke-width="1.08629" stroke-miterlimit="8" fill="#D2D6D9" fill-rule="evenodd"/><path d="M2125.5 924C2125.5 925.933 2123.71 927.5 2121.5 927.5 2119.29 927.5 2117.5 925.933 2117.5 924 2117.5 922.067 2119.29 920.5 2121.5 920.5 2123.71 920.5 2125.5 922.067 2125.5 924Z" stroke="#FFFFFF" stroke-width="1.08629" stroke-miterlimit="8" fill="#DADADA" fill-rule="evenodd"/><path d="M2239.5 745.402 2239.5 850.372 2224.5 854.5 2224.5 740.5 2239.5 745.402Z" stroke="#FFFFFF" stroke-width="1.09711" stroke-miterlimit="8" fill="#D2D6D9" fill-rule="evenodd"/><path d="M2236.5 750C2236.5 751.933 2234.71 753.5 2232.5 753.5 2230.29 753.5 2228.5 751.933 2228.5 750 2228.5 748.067 2230.29 746.5 2232.5 746.5 2234.71 746.5 2236.5 748.067 2236.5 750Z" stroke="#FFFFFF" stroke-width="1.08629" stroke-miterlimit="8" fill="#DADADA" fill-rule="evenodd"/><path d="M2239.5 1060.69 2239.5 1075.5 2224.5 1075.5 2224.5 1055.5 2239.5 1060.69Z" stroke="#FFFFFF" stroke-width="1.10794" stroke-miterlimit="8" fill="#D2D6D9" fill-rule="evenodd"/><path d="M2236.5 1067.5C2236.5 1069.71 2234.71 1071.5 2232.5 1071.5 2230.29 1071.5 2228.5 1069.71 2228.5 1067.5 2228.5 1065.29 2230.29 1063.5 2232.5 1063.5 2234.71 1063.5 2236.5 1065.29 2236.5 1067.5Z" stroke="#FFFFFF" stroke-width="1.10794" stroke-miterlimit="8" fill="#DADADA" fill-rule="evenodd"/><path d="M2239.5 936.405 2239.5 1041.37 2224.5 1045.5 2224.5 931.5 2239.5 936.405Z" stroke="#FFFFFF" stroke-width="1.09711" stroke-miterlimit="8" fill="#D2D6D9" fill-rule="evenodd"/><path d="M2236.5 941C2236.5 942.933 2234.71 944.5 2232.5 944.5 2230.29 944.5 2228.5 942.933 2228.5 941 2228.5 939.067 2230.29 937.5 2232.5 937.5 2234.71 937.5 2236.5 939.067 2236.5 941Z" stroke="#FFFFFF" stroke-width="1.08629" stroke-miterlimit="8" fill="#DADADA" fill-rule="evenodd"/><path d="M2239.5 869.696 2239.5 884.5 2224.5 884.5 2224.5 864.5 2239.5 869.696Z" stroke="#FFFFFF" stroke-width="1.08629" stroke-miterlimit="8" fill="#D2D6D9" fill-rule="evenodd"/><path d="M2236.5 876.5C2236.5 878.709 2234.71 880.5 2232.5 880.5 2230.29 880.5 2228.5 878.709 2228.5 876.5 2228.5 874.291 2230.29 872.5 2232.5 872.5 2234.71 872.5 2236.5 874.291 2236.5 876.5Z" stroke="#FFFFFF" stroke-width="1.08629" stroke-miterlimit="8" fill="#DADADA" fill-rule="evenodd"/><path d="M2114.5 1055.43 2114.5 1045.8 2128.5 1041.5 2128.5 1060.5 2114.5 1055.43Z" stroke="#FFFFFF" stroke-width="1.10794" stroke-miterlimit="8" fill="#D2D6D9" fill-rule="evenodd"/><path d="M2125.5 1051.5C2125.5 1053.71 2123.71 1055.5 2121.5 1055.5 2119.29 1055.5 2117.5 1053.71 2117.5 1051.5 2117.5 1049.29 2119.29 1047.5 2121.5 1047.5 2123.71 1047.5 2125.5 1049.29 2125.5 1051.5Z" stroke="#FFFFFF" stroke-width="1.10794" stroke-miterlimit="8" fill="#DADADA" fill-rule="evenodd"/><path d="M2114.5 739.564 2114.5 725.5 2128.5 725.5 2128.5 744.5 2114.5 739.564Z" stroke="#FFFFFF" stroke-width="1.08629" stroke-miterlimit="8" fill="#D2D6D9" fill-rule="evenodd"/><path d="M2125.5 733C2125.5 734.933 2123.71 736.5 2121.5 736.5 2119.29 736.5 2117.5 734.933 2117.5 733 2117.5 731.067 2119.29 729.5 2121.5 729.5 2123.71 729.5 2125.5 731.067 2125.5 733Z" stroke="#FFFFFF" stroke-width="1.08629" stroke-miterlimit="8" fill="#DADADA" fill-rule="evenodd"/><path d="M2114.5 864.433 2114.5 854.809 2128.5 850.5 2128.5 869.5 2114.5 864.433Z" stroke="#FFFFFF" stroke-width="1.08629" stroke-miterlimit="8" fill="#D2D6D9" fill-rule="evenodd"/><path d="M2125.5 860.5C2125.5 862.709 2123.71 864.5 2121.5 864.5 2119.29 864.5 2117.5 862.709 2117.5 860.5 2117.5 858.291 2119.29 856.5 2121.5 856.5 2123.71 856.5 2125.5 858.291 2125.5 860.5Z" stroke="#FFFFFF" stroke-width="1.08629" stroke-miterlimit="8" fill="#DADADA" fill-rule="evenodd"/><path d="M2279.5 886.5 2239.5 886.5 2239.5 726.5 2279.5 726.5 2279.5 739.857 2279.5 886.5Z" stroke="#FFFFFF" stroke-width="0.961417" stroke-miterlimit="8" fill="#D2D6D9" fill-rule="evenodd"/><path d="M2239.5 734.5 2279.5 734.5 2279.5 758.5 2239.5 758.5Z" stroke="#FFFFFF" stroke-width="0.961417" stroke-miterlimit="8" fill="#0C0C0C" fill-rule="evenodd"/><path d="M2261 830.5C2261 835.195 2257.19 839 2252.5 839 2247.81 839 2244 835.195 2244 830.5 2244 825.806 2247.81 822 2252.5 822 2257.19 822 2261 825.806 2261 830.5Z" stroke="#FFFFFF" stroke-width="2.41293" stroke-miterlimit="8" fill="#1D1D1B" fill-rule="evenodd"/><path d="M2261 773C2261 777.971 2257.19 782 2252.5 782 2247.81 782 2244 777.971 2244 773 2244 768.029 2247.81 764 2252.5 764 2257.19 764 2261 768.029 2261 773Z" stroke="#FFFFFF" stroke-width="2.41293" stroke-miterlimit="8" fill="#1D1D1B" fill-rule="evenodd"/><path d="M2275 800.5C2275 805.194 2271.19 809 2266.5 809 2261.81 809 2258 805.194 2258 800.5 2258 795.806 2261.81 792 2266.5 792 2271.19 792 2275 795.806 2275 800.5Z" stroke="#FFFFFF" stroke-width="2.41293" stroke-miterlimit="8" fill="#1D1D1B" fill-rule="evenodd"/><path d="M2275 858.5C2275 863.195 2271.19 867 2266.5 867 2261.81 867 2258 863.195 2258 858.5 2258 853.806 2261.81 850 2266.5 850 2271.19 850 2275 853.806 2275 858.5Z" stroke="#FFFFFF" stroke-width="2.41293" stroke-miterlimit="8" fill="#1D1D1B" fill-rule="evenodd"/><path d="M2239.5 734.5 2245.5 734.5 2245.5 758.5 2239.5 758.5Z" stroke="#FFFFFF" stroke-width="0.961417" stroke-miterlimit="8" fill="#FCEA10" fill-rule="evenodd"/><path d="M2274.5 734.5 2279.5 734.5 2279.5 758.5 2274.5 758.5Z" stroke="#FFFFFF" stroke-width="0.932546" stroke-miterlimit="8" fill="#FCEA10" fill-rule="evenodd"/><path d="M2294.5 746.445 2294.5 852.341 2279.5 856.5 2279.5 741.5 2294.5 746.445Z" stroke="#FFFFFF" stroke-width="0.970801" stroke-miterlimit="8" fill="#D2D6D9" fill-rule="evenodd"/><path d="M2291.5 751.5C2291.5 753.709 2289.71 755.5 2287.5 755.5 2285.29 755.5 2283.5 753.709 2283.5 751.5 2283.5 749.291 2285.29 747.5 2287.5 747.5 2289.71 747.5 2291.5 749.291 2291.5 751.5Z" stroke="#FFFFFF" stroke-width="0.961417" stroke-miterlimit="8" fill="#DADADA" fill-rule="evenodd"/><path d="M2294.5 871.694 2294.5 886.5 2279.5 886.5 2279.5 866.5 2294.5 871.694Z" stroke="#FFFFFF" stroke-width="0.961417" stroke-miterlimit="8" fill="#D2D6D9" fill-rule="evenodd"/><path d="M2291.5 878.5C2291.5 880.709 2289.71 882.5 2287.5 882.5 2285.29 882.5 2283.5 880.709 2283.5 878.5 2283.5 876.291 2285.29 874.5 2287.5 874.5 2289.71 874.5 2291.5 876.291 2291.5 878.5Z" stroke="#FFFFFF" stroke-width="0.961417" stroke-miterlimit="8" fill="#DADADA" fill-rule="evenodd"/><path d="M2224.5 741.306 2224.5 726.5 2239.5 726.5 2239.5 746.5 2224.5 741.306Z" stroke="#FFFFFF" stroke-width="0.961417" stroke-miterlimit="8" fill="#D2D6D9" fill-rule="evenodd"/><path d="M2236.5 734.5C2236.5 736.709 2234.71 738.5 2232.5 738.5 2230.29 738.5 2228.5 736.709 2228.5 734.5 2228.5 732.291 2230.29 730.5 2232.5 730.5 2234.71 730.5 2236.5 732.291 2236.5 734.5Z" stroke="#FFFFFF" stroke-width="0.961417" stroke-miterlimit="8" fill="#DADADA" fill-rule="evenodd"/><path d="M2224.5 866.433 2224.5 856.809 2239.5 852.5 2239.5 871.5 2224.5 866.433Z" stroke="#FFFFFF" stroke-width="0.961417" stroke-miterlimit="8" fill="#D2D6D9" fill-rule="evenodd"/><path d="M2236.5 861.5C2236.5 863.709 2234.71 865.5 2232.5 865.5 2230.29 865.5 2228.5 863.709 2228.5 861.5 2228.5 859.291 2230.29 857.5 2232.5 857.5 2234.71 857.5 2236.5 859.291 2236.5 861.5Z" stroke="#FFFFFF" stroke-width="0.961417" stroke-miterlimit="8" fill="#DADADA" fill-rule="evenodd"/><path d="M2335.5 886.5 2295.5 886.5 2295.5 726.5 2335.5 726.5 2335.5 739.857 2335.5 886.5Z" stroke="#FFFFFF" stroke-width="0.961417" stroke-miterlimit="8" fill="#D2D6D9" fill-rule="evenodd"/><path d="M2295.5 734.5 2335.5 734.5 2335.5 758.5 2295.5 758.5Z" stroke="#FFFFFF" stroke-width="0.961417" stroke-miterlimit="8" fill="#0C0C0C" fill-rule="evenodd"/><path d="M2317 830.5C2317 835.195 2313.19 839 2308.5 839 2303.81 839 2300 835.195 2300 830.5 2300 825.806 2303.81 822 2308.5 822 2313.19 822 2317 825.806 2317 830.5Z" stroke="#FFFFFF" stroke-width="2.41293" stroke-miterlimit="8" fill="#1D1D1B" fill-rule="evenodd"/><path d="M2317 773C2317 777.971 2313.19 782 2308.5 782 2303.81 782 2300 777.971 2300 773 2300 768.029 2303.81 764 2308.5 764 2313.19 764 2317 768.029 2317 773Z" stroke="#FFFFFF" stroke-width="2.41293" stroke-miterlimit="8" fill="#1D1D1B" fill-rule="evenodd"/><path d="M2331 800.5C2331 805.194 2327.19 809 2322.5 809 2317.81 809 2314 805.194 2314 800.5 2314 795.806 2317.81 792 2322.5 792 2327.19 792 2331 795.806 2331 800.5Z" stroke="#FFFFFF" stroke-width="2.41293" stroke-miterlimit="8" fill="#1D1D1B" fill-rule="evenodd"/><path d="M2331 858.5C2331 863.195 2327.19 867 2322.5 867 2317.81 867 2314 863.195 2314 858.5 2314 853.806 2317.81 850 2322.5 850 2327.19 850 2331 853.806 2331 858.5Z" stroke="#FFFFFF" stroke-width="2.41293" stroke-miterlimit="8" fill="#1D1D1B" fill-rule="evenodd"/><path d="M2350.5 746.445 2350.5 852.341 2335.5 856.5 2335.5 741.5 2350.5 746.445Z" stroke="#FFFFFF" stroke-width="0.970801" stroke-miterlimit="8" fill="#D2D6D9" fill-rule="evenodd"/><path d="M2347.5 751.5C2347.5 753.709 2345.71 755.5 2343.5 755.5 2341.29 755.5 2339.5 753.709 2339.5 751.5 2339.5 749.291 2341.29 747.5 2343.5 747.5 2345.71 747.5 2347.5 749.291 2347.5 751.5Z" stroke="#FFFFFF" stroke-width="0.961417" stroke-miterlimit="8" fill="#DADADA" fill-rule="evenodd"/><path d="M2350.5 871.694 2350.5 886.5 2335.5 886.5 2335.5 866.5 2350.5 871.694Z" stroke="#FFFFFF" stroke-width="0.961417" stroke-miterlimit="8" fill="#D2D6D9" fill-rule="evenodd"/><path d="M2347.5 878.5C2347.5 880.709 2345.71 882.5 2343.5 882.5 2341.29 882.5 2339.5 880.709 2339.5 878.5 2339.5 876.291 2341.29 874.5 2343.5 874.5 2345.71 874.5 2347.5 876.291 2347.5 878.5Z" stroke="#FFFFFF" stroke-width="0.961417" stroke-miterlimit="8" fill="#DADADA" fill-rule="evenodd"/><path d="M2280.5 741.306 2280.5 726.5 2295.5 726.5 2295.5 746.5 2280.5 741.306Z" stroke="#FFFFFF" stroke-width="0.961417" stroke-miterlimit="8" fill="#D2D6D9" fill-rule="evenodd"/><path d="M2292.5 734.5C2292.5 736.709 2290.71 738.5 2288.5 738.5 2286.29 738.5 2284.5 736.709 2284.5 734.5 2284.5 732.291 2286.29 730.5 2288.5 730.5 2290.71 730.5 2292.5 732.291 2292.5 734.5Z" stroke="#FFFFFF" stroke-width="0.961417" stroke-miterlimit="8" fill="#DADADA" fill-rule="evenodd"/><path d="M2280.5 866.433 2280.5 856.809 2295.5 852.5 2295.5 871.5 2280.5 866.433Z" stroke="#FFFFFF" stroke-width="0.961417" stroke-miterlimit="8" fill="#D2D6D9" fill-rule="evenodd"/><path d="M2292.5 861.5C2292.5 863.709 2290.71 865.5 2288.5 865.5 2286.29 865.5 2284.5 863.709 2284.5 861.5 2284.5 859.291 2286.29 857.5 2288.5 857.5 2290.71 857.5 2292.5 859.291 2292.5 861.5Z" stroke="#FFFFFF" stroke-width="0.961417" stroke-miterlimit="8" fill="#DADADA" fill-rule="evenodd"/><path d="M2449.5 884.5 2409.5 884.5 2409.5 725.5 2449.5 725.5 2449.5 738.774 2449.5 884.5Z" stroke="#FFFFFF" stroke-width="0.961417" stroke-miterlimit="8" fill="#D2D6D9" fill-rule="evenodd"/><path d="M2409.5 733.5 2449.5 733.5 2449.5 757.5 2409.5 757.5Z" stroke="#FFFFFF" stroke-width="0.961417" stroke-miterlimit="8" fill="#0C0C0C" fill-rule="evenodd"/><path d="M2425.5 765.5C2425.5 769.366 2422.37 772.5 2418.5 772.5 2414.63 772.5 2411.5 769.366 2411.5 765.5 2411.5 761.634 2414.63 758.5 2418.5 758.5 2422.37 758.5 2425.5 761.634 2425.5 765.5Z" stroke="#FFFFFF" stroke-width="1.45151" stroke-miterlimit="8" fill="#0C0C0C" fill-rule="evenodd"/><path d="M2425.5 794.5C2425.5 798.366 2422.37 801.5 2418.5 801.5 2414.63 801.5 2411.5 798.366 2411.5 794.5 2411.5 790.634 2414.63 787.5 2418.5 787.5 2422.37 787.5 2425.5 790.634 2425.5 794.5Z" stroke="#FFFFFF" stroke-width="1.45151" stroke-miterlimit="8" fill="#0C0C0C" fill-rule="evenodd"/><path d="M2425.5 823C2425.5 826.59 2422.37 829.5 2418.5 829.5 2414.63 829.5 2411.5 826.59 2411.5 823 2411.5 819.41 2414.63 816.5 2418.5 816.5 2422.37 816.5 2425.5 819.41 2425.5 823Z" stroke="#FFFFFF" stroke-width="1.45151" stroke-miterlimit="8" fill="#0C0C0C" fill-rule="evenodd"/><path d="M2425.5 852C2425.5 855.59 2422.37 858.5 2418.5 858.5 2414.63 858.5 2411.5 855.59 2411.5 852 2411.5 848.41 2414.63 845.5 2418.5 845.5 2422.37 845.5 2425.5 848.41 2425.5 852Z" stroke="#FFFFFF" stroke-width="1.45151" stroke-miterlimit="8" fill="#0C0C0C" fill-rule="evenodd"/><path d="M2447.5 780C2447.5 783.59 2444.37 786.5 2440.5 786.5 2436.63 786.5 2433.5 783.59 2433.5 780 2433.5 776.41 2436.63 773.5 2440.5 773.5 2444.37 773.5 2447.5 776.41 2447.5 780Z" stroke="#FFFFFF" stroke-width="1.45151" stroke-miterlimit="8" fill="#0C0C0C" fill-rule="evenodd"/><path d="M2447.5 808.5C2447.5 812.366 2444.37 815.5 2440.5 815.5 2436.63 815.5 2433.5 812.366 2433.5 808.5 2433.5 804.634 2436.63 801.5 2440.5 801.5 2444.37 801.5 2447.5 804.634 2447.5 808.5Z" stroke="#FFFFFF" stroke-width="1.45151" stroke-miterlimit="8" fill="#0C0C0C" fill-rule="evenodd"/><path d="M2447.5 837.5C2447.5 841.366 2444.37 844.5 2440.5 844.5 2436.63 844.5 2433.5 841.366 2433.5 837.5 2433.5 833.634 2436.63 830.5 2440.5 830.5 2444.37 830.5 2447.5 833.634 2447.5 837.5Z" stroke="#FFFFFF" stroke-width="1.45151" stroke-miterlimit="8" fill="#0C0C0C" fill-rule="evenodd"/><path d="M2447.5 866.5C2447.5 870.366 2444.37 873.5 2440.5 873.5 2436.63 873.5 2433.5 870.366 2433.5 866.5 2433.5 862.634 2436.63 859.5 2440.5 859.5 2444.37 859.5 2447.5 862.634 2447.5 866.5Z" stroke="#FFFFFF" stroke-width="1.45151" stroke-miterlimit="8" fill="#0C0C0C" fill-rule="evenodd"/><path d="M2464.5 745.402 2464.5 850.378 2449.5 854.5 2449.5 740.5 2464.5 745.402Z" stroke="#FFFFFF" stroke-width="0.970801" stroke-miterlimit="8" fill="#D2D6D9" fill-rule="evenodd"/><path d="M2460.5 750C2460.5 751.933 2458.93 753.5 2457 753.5 2455.07 753.5 2453.5 751.933 2453.5 750 2453.5 748.067 2455.07 746.5 2457 746.5 2458.93 746.5 2460.5 748.067 2460.5 750Z" stroke="#FFFFFF" stroke-width="0.961417" stroke-miterlimit="8" fill="#DADADA" fill-rule="evenodd"/><path d="M2464.5 869.694 2464.5 884.5 2449.5 884.5 2449.5 864.5 2464.5 869.694Z" stroke="#FFFFFF" stroke-width="0.961417" stroke-miterlimit="8" fill="#D2D6D9" fill-rule="evenodd"/><path d="M2460.5 876.5C2460.5 878.709 2458.71 880.5 2456.5 880.5 2454.29 880.5 2452.5 878.709 2452.5 876.5 2452.5 874.291 2454.29 872.5 2456.5 872.5 2458.71 872.5 2460.5 874.291 2460.5 876.5Z" stroke="#FFFFFF" stroke-width="0.961417" stroke-miterlimit="8" fill="#DADADA" fill-rule="evenodd"/><path d="M2394.5 739.566 2394.5 725.5 2409.5 725.5 2409.5 744.5 2394.5 739.566Z" stroke="#FFFFFF" stroke-width="0.961417" stroke-miterlimit="8" fill="#D2D6D9" fill-rule="evenodd"/><path d="M2405.5 733C2405.5 734.933 2403.71 736.5 2401.5 736.5 2399.29 736.5 2397.5 734.933 2397.5 733 2397.5 731.067 2399.29 729.5 2401.5 729.5 2403.71 729.5 2405.5 731.067 2405.5 733Z" stroke="#FFFFFF" stroke-width="0.961417" stroke-miterlimit="8" fill="#DADADA" fill-rule="evenodd"/><path d="M2394.5 864.433 2394.5 854.809 2409.5 850.5 2409.5 869.5 2394.5 864.433Z" stroke="#FFFFFF" stroke-width="0.961417" stroke-miterlimit="8" fill="#D2D6D9" fill-rule="evenodd"/><path d="M2405.5 860.5C2405.5 862.709 2403.71 864.5 2401.5 864.5 2399.29 864.5 2397.5 862.709 2397.5 860.5 2397.5 858.291 2399.29 856.5 2401.5 856.5 2403.71 856.5 2405.5 858.291 2405.5 860.5Z" stroke="#FFFFFF" stroke-width="0.961417" stroke-miterlimit="8" fill="#DADADA" fill-rule="evenodd"/><path d="M2279.5 1075.5 2239.5 1075.5 2239.5 916.5 2279.5 916.5 2279.5 929.774 2279.5 1075.5Z" stroke="#FFFFFF" stroke-width="0.961417" stroke-miterlimit="8" fill="#D2D6D9" fill-rule="evenodd"/><path d="M2239.5 924.5 2279.5 924.5 2279.5 948.5 2239.5 948.5Z" stroke="#FFFFFF" stroke-width="0.961417" stroke-miterlimit="8" fill="#0C0C0C" fill-rule="evenodd"/><path d="M2261 1019.5C2261 1024.19 2257.19 1028 2252.5 1028 2247.81 1028 2244 1024.19 2244 1019.5 2244 1014.81 2247.81 1011 2252.5 1011 2257.19 1011 2261 1014.81 2261 1019.5Z" stroke="#FFFFFF" stroke-width="2.41293" stroke-miterlimit="8" fill="#1D1D1B" fill-rule="evenodd"/><path d="M2261 962.5C2261 967.195 2257.19 971 2252.5 971 2247.81 971 2244 967.195 2244 962.5 2244 957.805 2247.81 954 2252.5 954 2257.19 954 2261 957.805 2261 962.5Z" stroke="#FFFFFF" stroke-width="2.41293" stroke-miterlimit="8" fill="#1D1D1B" fill-rule="evenodd"/><path d="M2275 990.5C2275 995.195 2271.19 999 2266.5 999 2261.81 999 2258 995.195 2258 990.5 2258 985.806 2261.81 982 2266.5 982 2271.19 982 2275 985.806 2275 990.5Z" stroke="#FFFFFF" stroke-width="2.41293" stroke-miterlimit="8" fill="#1D1D1B" fill-rule="evenodd"/><path d="M2275 1048C2275 1052.97 2271.19 1057 2266.5 1057 2261.81 1057 2258 1052.97 2258 1048 2258 1043.03 2261.81 1039 2266.5 1039 2271.19 1039 2275 1043.03 2275 1048Z" stroke="#FFFFFF" stroke-width="2.41293" stroke-miterlimit="8" fill="#1D1D1B" fill-rule="evenodd"/><path d="M2294.5 936.402 2294.5 1041.38 2279.5 1045.5 2279.5 931.5 2294.5 936.402Z" stroke="#FFFFFF" stroke-width="0.970801" stroke-miterlimit="8" fill="#D2D6D9" fill-rule="evenodd"/><path d="M2291.5 941C2291.5 942.933 2289.71 944.5 2287.5 944.5 2285.29 944.5 2283.5 942.933 2283.5 941 2283.5 939.067 2285.29 937.5 2287.5 937.5 2289.71 937.5 2291.5 939.067 2291.5 941Z" stroke="#FFFFFF" stroke-width="0.961417" stroke-miterlimit="8" fill="#DADADA" fill-rule="evenodd"/><path d="M2294.5 1060.69 2294.5 1075.5 2279.5 1075.5 2279.5 1055.5 2294.5 1060.69Z" stroke="#FFFFFF" stroke-width="0.961417" stroke-miterlimit="8" fill="#D2D6D9" fill-rule="evenodd"/><path d="M2291.5 1067.5C2291.5 1069.71 2289.71 1071.5 2287.5 1071.5 2285.29 1071.5 2283.5 1069.71 2283.5 1067.5 2283.5 1065.29 2285.29 1063.5 2287.5 1063.5 2289.71 1063.5 2291.5 1065.29 2291.5 1067.5Z" stroke="#FFFFFF" stroke-width="0.961417" stroke-miterlimit="8" fill="#DADADA" fill-rule="evenodd"/><path d="M2224.5 930.565 2224.5 916.5 2239.5 916.5 2239.5 935.5 2224.5 930.565Z" stroke="#FFFFFF" stroke-width="0.961417" stroke-miterlimit="8" fill="#D2D6D9" fill-rule="evenodd"/><path d="M2236.5 924C2236.5 925.933 2234.71 927.5 2232.5 927.5 2230.29 927.5 2228.5 925.933 2228.5 924 2228.5 922.067 2230.29 920.5 2232.5 920.5 2234.71 920.5 2236.5 922.067 2236.5 924Z" stroke="#FFFFFF" stroke-width="0.961417" stroke-miterlimit="8" fill="#DADADA" fill-rule="evenodd"/><path d="M2224.5 1055.43 2224.5 1045.81 2239.5 1041.5 2239.5 1060.5 2224.5 1055.43Z" stroke="#FFFFFF" stroke-width="0.961417" stroke-miterlimit="8" fill="#D2D6D9" fill-rule="evenodd"/><path d="M2236.5 1051.5C2236.5 1053.71 2234.71 1055.5 2232.5 1055.5 2230.29 1055.5 2228.5 1053.71 2228.5 1051.5 2228.5 1049.29 2230.29 1047.5 2232.5 1047.5 2234.71 1047.5 2236.5 1049.29 2236.5 1051.5Z" stroke="#FFFFFF" stroke-width="0.961417" stroke-miterlimit="8" fill="#DADADA" fill-rule="evenodd"/><path d="M2392.5 886.5 2352.5 886.5 2352.5 727.5 2392.5 727.5 2392.5 740.774 2392.5 886.5Z" stroke="#FFFFFF" stroke-width="0.961417" stroke-miterlimit="8" fill="#D2D6D9" fill-rule="evenodd"/><path d="M2352.5 735.5 2392.5 735.5 2392.5 759.5 2352.5 759.5Z" stroke="#FFFFFF" stroke-width="0.961417" stroke-miterlimit="8" fill="#0C0C0C" fill-rule="evenodd"/><path d="M2374 830.5C2374 835.195 2370.19 839 2365.5 839 2360.81 839 2357 835.195 2357 830.5 2357 825.806 2360.81 822 2365.5 822 2370.19 822 2374 825.806 2374 830.5Z" stroke="#FFFFFF" stroke-width="2.41293" stroke-miterlimit="8" fill="#1D1D1B" fill-rule="evenodd"/><path d="M2374 773.5C2374 778.195 2370.19 782 2365.5 782 2360.81 782 2357 778.195 2357 773.5 2357 768.805 2360.81 765 2365.5 765 2370.19 765 2374 768.805 2374 773.5Z" stroke="#FFFFFF" stroke-width="2.41293" stroke-miterlimit="8" fill="#1D1D1B" fill-rule="evenodd"/><path d="M2388 801C2388 805.971 2384.19 810 2379.5 810 2374.81 810 2371 805.971 2371 801 2371 796.03 2374.81 792 2379.5 792 2384.19 792 2388 796.03 2388 801Z" stroke="#FFFFFF" stroke-width="2.41293" stroke-miterlimit="8" fill="#1D1D1B" fill-rule="evenodd"/><path d="M2388 858.5C2388 863.195 2384.19 867 2379.5 867 2374.81 867 2371 863.195 2371 858.5 2371 853.806 2374.81 850 2379.5 850 2384.19 850 2388 853.806 2388 858.5Z" stroke="#FFFFFF" stroke-width="2.41293" stroke-miterlimit="8" fill="#1D1D1B" fill-rule="evenodd"/><path d="M2407.5 746.445 2407.5 852.341 2392.5 856.5 2392.5 741.5 2407.5 746.445Z" stroke="#FFFFFF" stroke-width="0.970801" stroke-miterlimit="8" fill="#D2D6D9" fill-rule="evenodd"/><path d="M2404.5 752C2404.5 753.933 2402.71 755.5 2400.5 755.5 2398.29 755.5 2396.5 753.933 2396.5 752 2396.5 750.067 2398.29 748.5 2400.5 748.5 2402.71 748.5 2404.5 750.067 2404.5 752Z" stroke="#FFFFFF" stroke-width="0.961417" stroke-miterlimit="8" fill="#DADADA" fill-rule="evenodd"/><path d="M2407.5 871.694 2407.5 886.5 2392.5 886.5 2392.5 866.5 2407.5 871.694Z" stroke="#FFFFFF" stroke-width="0.961417" stroke-miterlimit="8" fill="#D2D6D9" fill-rule="evenodd"/><path d="M2403.5 878.5C2403.5 880.709 2401.93 882.5 2400 882.5 2398.07 882.5 2396.5 880.709 2396.5 878.5 2396.5 876.291 2398.07 874.5 2400 874.5 2401.93 874.5 2403.5 876.291 2403.5 878.5Z" stroke="#FFFFFF" stroke-width="0.961417" stroke-miterlimit="8" fill="#DADADA" fill-rule="evenodd"/><path d="M2337.5 741.566 2337.5 727.5 2352.5 727.5 2352.5 746.5 2337.5 741.566Z" stroke="#FFFFFF" stroke-width="0.961417" stroke-miterlimit="8" fill="#D2D6D9" fill-rule="evenodd"/><path d="M2349.5 735C2349.5 736.933 2347.71 738.5 2345.5 738.5 2343.29 738.5 2341.5 736.933 2341.5 735 2341.5 733.067 2343.29 731.5 2345.5 731.5 2347.71 731.5 2349.5 733.067 2349.5 735Z" stroke="#FFFFFF" stroke-width="0.961417" stroke-miterlimit="8" fill="#DADADA" fill-rule="evenodd"/><path d="M2337.5 866.433 2337.5 856.809 2352.5 852.5 2352.5 871.5 2337.5 866.433Z" stroke="#FFFFFF" stroke-width="0.961417" stroke-miterlimit="8" fill="#D2D6D9" fill-rule="evenodd"/><path d="M2349.5 862.5C2349.5 864.709 2347.71 866.5 2345.5 866.5 2343.29 866.5 2341.5 864.709 2341.5 862.5 2341.5 860.291 2343.29 858.5 2345.5 858.5 2347.71 858.5 2349.5 860.291 2349.5 862.5Z" stroke="#FFFFFF" stroke-width="0.961417" stroke-miterlimit="8" fill="#DADADA" fill-rule="evenodd"/><path d="M2335.5 1075.5 2294.5 1075.5 2294.5 916.5 2335.5 916.5 2335.5 929.774 2335.5 1075.5Z" stroke="#FFFFFF" stroke-width="0.961417" stroke-miterlimit="8" fill="#D2D6D9" fill-rule="evenodd"/><path d="M2294.5 924.5 2335.5 924.5 2335.5 948.5 2294.5 948.5Z" stroke="#FFFFFF" stroke-width="0.961417" stroke-miterlimit="8" fill="#0C0C0C" fill-rule="evenodd"/><path d="M2310.5 956.5C2310.5 960.366 2307.59 963.5 2304 963.5 2300.41 963.5 2297.5 960.366 2297.5 956.5 2297.5 952.634 2300.41 949.5 2304 949.5 2307.59 949.5 2310.5 952.634 2310.5 956.5Z" stroke="#FFFFFF" stroke-width="1.45151" stroke-miterlimit="8" fill="#0C0C0C" fill-rule="evenodd"/><path d="M2310.5 985.5C2310.5 989.366 2307.59 992.5 2304 992.5 2300.41 992.5 2297.5 989.366 2297.5 985.5 2297.5 981.634 2300.41 978.5 2304 978.5 2307.59 978.5 2310.5 981.634 2310.5 985.5Z" stroke="#FFFFFF" stroke-width="1.45151" stroke-miterlimit="8" fill="#0C0C0C" fill-rule="evenodd"/><path d="M2310.5 1014C2310.5 1017.59 2307.59 1020.5 2304 1020.5 2300.41 1020.5 2297.5 1017.59 2297.5 1014 2297.5 1010.41 2300.41 1007.5 2304 1007.5 2307.59 1007.5 2310.5 1010.41 2310.5 1014Z" stroke="#FFFFFF" stroke-width="1.45151" stroke-miterlimit="8" fill="#0C0C0C" fill-rule="evenodd"/><path d="M2310.5 1043C2310.5 1046.59 2307.59 1049.5 2304 1049.5 2300.41 1049.5 2297.5 1046.59 2297.5 1043 2297.5 1039.41 2300.41 1036.5 2304 1036.5 2307.59 1036.5 2310.5 1039.41 2310.5 1043Z" stroke="#FFFFFF" stroke-width="1.45151" stroke-miterlimit="8" fill="#0C0C0C" fill-rule="evenodd"/><path d="M2332.5 971C2332.5 974.59 2329.59 977.5 2326 977.5 2322.41 977.5 2319.5 974.59 2319.5 971 2319.5 967.41 2322.41 964.5 2326 964.5 2329.59 964.5 2332.5 967.41 2332.5 971Z" stroke="#FFFFFF" stroke-width="1.45151" stroke-miterlimit="8" fill="#0C0C0C" fill-rule="evenodd"/><path d="M2332.5 999.5C2332.5 1003.37 2329.59 1006.5 2326 1006.5 2322.41 1006.5 2319.5 1003.37 2319.5 999.5 2319.5 995.634 2322.41 992.5 2326 992.5 2329.59 992.5 2332.5 995.634 2332.5 999.5Z" stroke="#FFFFFF" stroke-width="1.45151" stroke-miterlimit="8" fill="#0C0C0C" fill-rule="evenodd"/><path d="M2332.5 1028.5C2332.5 1032.37 2329.59 1035.5 2326 1035.5 2322.41 1035.5 2319.5 1032.37 2319.5 1028.5 2319.5 1024.63 2322.41 1021.5 2326 1021.5 2329.59 1021.5 2332.5 1024.63 2332.5 1028.5Z" stroke="#FFFFFF" stroke-width="1.45151" stroke-miterlimit="8" fill="#0C0C0C" fill-rule="evenodd"/><path d="M2332.5 1057.5C2332.5 1061.37 2329.59 1064.5 2326 1064.5 2322.41 1064.5 2319.5 1061.37 2319.5 1057.5 2319.5 1053.63 2322.41 1050.5 2326 1050.5 2329.59 1050.5 2332.5 1053.63 2332.5 1057.5Z" stroke="#FFFFFF" stroke-width="1.45151" stroke-miterlimit="8" fill="#0C0C0C" fill-rule="evenodd"/><path d="M2350.5 936.402 2350.5 1041.38 2335.5 1045.5 2335.5 931.5 2350.5 936.402Z" stroke="#FFFFFF" stroke-width="0.970801" stroke-miterlimit="8" fill="#D2D6D9" fill-rule="evenodd"/><path d="M2346.5 941C2346.5 942.933 2344.71 944.5 2342.5 944.5 2340.29 944.5 2338.5 942.933 2338.5 941 2338.5 939.067 2340.29 937.5 2342.5 937.5 2344.71 937.5 2346.5 939.067 2346.5 941Z" stroke="#FFFFFF" stroke-width="0.961417" stroke-miterlimit="8" fill="#DADADA" fill-rule="evenodd"/><path d="M2349.5 1060.69 2349.5 1075.5 2335.5 1075.5 2335.5 1055.5 2349.5 1060.69Z" stroke="#FFFFFF" stroke-width="0.961417" stroke-miterlimit="8" fill="#D2D6D9" fill-rule="evenodd"/><path d="M2346.5 1067.5C2346.5 1069.71 2344.71 1071.5 2342.5 1071.5 2340.29 1071.5 2338.5 1069.71 2338.5 1067.5 2338.5 1065.29 2340.29 1063.5 2342.5 1063.5 2344.71 1063.5 2346.5 1065.29 2346.5 1067.5Z" stroke="#FFFFFF" stroke-width="0.961417" stroke-miterlimit="8" fill="#DADADA" fill-rule="evenodd"/><path d="M2280.5 930.565 2280.5 916.5 2294.5 916.5 2294.5 935.5 2280.5 930.565Z" stroke="#FFFFFF" stroke-width="0.961417" stroke-miterlimit="8" fill="#D2D6D9" fill-rule="evenodd"/><path d="M2291.5 924C2291.5 925.933 2289.71 927.5 2287.5 927.5 2285.29 927.5 2283.5 925.933 2283.5 924 2283.5 922.067 2285.29 920.5 2287.5 920.5 2289.71 920.5 2291.5 922.067 2291.5 924Z" stroke="#FFFFFF" stroke-width="0.961417" stroke-miterlimit="8" fill="#DADADA" fill-rule="evenodd"/><path d="M2280.5 1055.43 2280.5 1045.81 2294.5 1041.5 2294.5 1060.5 2280.5 1055.43Z" stroke="#FFFFFF" stroke-width="0.961417" stroke-miterlimit="8" fill="#D2D6D9" fill-rule="evenodd"/><path d="M2291.5 1051.5C2291.5 1053.71 2289.71 1055.5 2287.5 1055.5 2285.29 1055.5 2283.5 1053.71 2283.5 1051.5 2283.5 1049.29 2285.29 1047.5 2287.5 1047.5 2289.71 1047.5 2291.5 1049.29 2291.5 1051.5Z" stroke="#FFFFFF" stroke-width="0.961417" stroke-miterlimit="8" fill="#DADADA" fill-rule="evenodd"/><path d="M2406.5 936.402 2406.5 1041.38 2391.5 1045.5 2391.5 931.5 2406.5 936.402Z" stroke="#FFFFFF" stroke-width="0.970801" stroke-miterlimit="8" fill="#D2D6D9" fill-rule="evenodd"/><path d="M2402.5 941C2402.5 942.933 2400.71 944.5 2398.5 944.5 2396.29 944.5 2394.5 942.933 2394.5 941 2394.5 939.067 2396.29 937.5 2398.5 937.5 2400.71 937.5 2402.5 939.067 2402.5 941Z" stroke="#FFFFFF" stroke-width="0.961417" stroke-miterlimit="8" fill="#DADADA" fill-rule="evenodd"/><path d="M2405.5 1060.69 2405.5 1075.5 2391.5 1075.5 2391.5 1055.5 2405.5 1060.69Z" stroke="#FFFFFF" stroke-width="0.961417" stroke-miterlimit="8" fill="#D2D6D9" fill-rule="evenodd"/><path d="M2402.5 1067.5C2402.5 1069.71 2400.71 1071.5 2398.5 1071.5 2396.29 1071.5 2394.5 1069.71 2394.5 1067.5 2394.5 1065.29 2396.29 1063.5 2398.5 1063.5 2400.71 1063.5 2402.5 1065.29 2402.5 1067.5Z" stroke="#FFFFFF" stroke-width="0.961417" stroke-miterlimit="8" fill="#DADADA" fill-rule="evenodd"/><path d="M2391.5 1075.5 2351.5 1075.5 2351.5 916.5 2391.5 916.5 2391.5 929.774 2391.5 1075.5Z" stroke="#FFFFFF" stroke-width="0.961417" stroke-miterlimit="8" fill="#D2D6D9" fill-rule="evenodd"/><path d="M2336.5 930.565 2336.5 916.5 2351.5 916.5 2351.5 935.5 2336.5 930.565Z" stroke="#FFFFFF" stroke-width="0.961417" stroke-miterlimit="8" fill="#D2D6D9" fill-rule="evenodd"/><path d="M2347.5 924C2347.5 925.933 2345.71 927.5 2343.5 927.5 2341.29 927.5 2339.5 925.933 2339.5 924 2339.5 922.067 2341.29 920.5 2343.5 920.5 2345.71 920.5 2347.5 922.067 2347.5 924Z" stroke="#FFFFFF" stroke-width="0.961417" stroke-miterlimit="8" fill="#DADADA" fill-rule="evenodd"/><path d="M2336.5 1055.43 2336.5 1045.81 2351.5 1041.5 2351.5 1060.5 2336.5 1055.43Z" stroke="#FFFFFF" stroke-width="0.961417" stroke-miterlimit="8" fill="#D2D6D9" fill-rule="evenodd"/><path d="M2347.5 1051.5C2347.5 1053.71 2345.71 1055.5 2343.5 1055.5 2341.29 1055.5 2339.5 1053.71 2339.5 1051.5 2339.5 1049.29 2341.29 1047.5 2343.5 1047.5 2345.71 1047.5 2347.5 1049.29 2347.5 1051.5Z" stroke="#FFFFFF" stroke-width="0.961417" stroke-miterlimit="8" fill="#DADADA" fill-rule="evenodd"/><path d="M2351.5 924.5 2391.5 924.5 2391.5 948.5 2351.5 948.5Z" stroke="#FFFFFF" stroke-width="0.961417" stroke-miterlimit="8" fill="#0C0C0C" fill-rule="evenodd"/><path d="M2351.5 978.5 2390.5 978.5 2390.5 999.5 2351.5 999.5Z" stroke="#FFFFFF" stroke-width="0.961417" stroke-miterlimit="8" fill="#FCEA10" fill-rule="evenodd"/><path d="M2358.5 999.5 2384.5 999.5 2384.5 1015.5 2358.5 1015.5Z" stroke="#FFFFFF" stroke-width="0.961417" stroke-miterlimit="8" fill="#9D9D9C" fill-rule="evenodd"/><path d="M2358.5 1015.5 2384.5 1015.5 2384.5 1023.5 2358.5 1023.5Z" stroke="#FFFFFF" stroke-width="0.961417" stroke-miterlimit="8" fill="#BE1622" fill-rule="evenodd"/><path d="M2351.5 924.5 2357.5 924.5 2357.5 948.5 2351.5 948.5Z" stroke="#FFFFFF" stroke-width="0.961417" stroke-miterlimit="8" fill="#FCEA10" fill-rule="evenodd"/><path d="M2385.5 924.5 2391.5 924.5 2391.5 948.5 2385.5 948.5Z" stroke="#FFFFFF" stroke-width="0.961417" stroke-miterlimit="8" fill="#FCEA10" fill-rule="evenodd"/><path d="M2445.5 1075.5 2405.5 1075.5 2405.5 916.5 2445.5 916.5 2445.5 929.774 2445.5 1075.5Z" stroke="#FFFFFF" stroke-width="0.961417" stroke-miterlimit="8" fill="#D2D6D9" fill-rule="evenodd"/><path d="M2417.5 924.5 2438.5 924.5 2438.5 1065.5 2417.5 1065.5Z" stroke="#FFFFFF" stroke-width="0.903675" stroke-miterlimit="8" fill="#D2D6D9" fill-rule="evenodd"/><path d="M2459.5 936.402 2459.5 1041.38 2445.5 1045.5 2445.5 931.5 2459.5 936.402Z" stroke="#FFFFFF" stroke-width="0.970801" stroke-miterlimit="8" fill="#D2D6D9" fill-rule="evenodd"/><path d="M2456.5 941C2456.5 942.933 2454.71 944.5 2452.5 944.5 2450.29 944.5 2448.5 942.933 2448.5 941 2448.5 939.067 2450.29 937.5 2452.5 937.5 2454.71 937.5 2456.5 939.067 2456.5 941Z" stroke="#FFFFFF" stroke-width="0.961417" stroke-miterlimit="8" fill="#DADADA" fill-rule="evenodd"/><path d="M2459.5 1060.69 2459.5 1075.5 2445.5 1075.5 2445.5 1055.5 2459.5 1060.69Z" stroke="#FFFFFF" stroke-width="0.961417" stroke-miterlimit="8" fill="#D2D6D9" fill-rule="evenodd"/><path d="M2456.5 1067.5C2456.5 1069.71 2454.71 1071.5 2452.5 1071.5 2450.29 1071.5 2448.5 1069.71 2448.5 1067.5 2448.5 1065.29 2450.29 1063.5 2452.5 1063.5 2454.71 1063.5 2456.5 1065.29 2456.5 1067.5Z" stroke="#FFFFFF" stroke-width="0.961417" stroke-miterlimit="8" fill="#DADADA" fill-rule="evenodd"/><path d="M2390.5 930.565 2390.5 916.5 2405.5 916.5 2405.5 935.5 2390.5 930.565Z" stroke="#FFFFFF" stroke-width="0.961417" stroke-miterlimit="8" fill="#D2D6D9" fill-rule="evenodd"/><path d="M2401.5 924C2401.5 925.933 2399.71 927.5 2397.5 927.5 2395.29 927.5 2393.5 925.933 2393.5 924 2393.5 922.067 2395.29 920.5 2397.5 920.5 2399.71 920.5 2401.5 922.067 2401.5 924Z" stroke="#FFFFFF" stroke-width="0.961417" stroke-miterlimit="8" fill="#DADADA" fill-rule="evenodd"/><path d="M2390.5 1055.43 2390.5 1045.81 2405.5 1041.5 2405.5 1060.5 2390.5 1055.43Z" stroke="#FFFFFF" stroke-width="0.961417" stroke-miterlimit="8" fill="#D2D6D9" fill-rule="evenodd"/><path d="M2401.5 1051.5C2401.5 1053.71 2399.71 1055.5 2397.5 1055.5 2395.29 1055.5 2393.5 1053.71 2393.5 1051.5 2393.5 1049.29 2395.29 1047.5 2397.5 1047.5 2399.71 1047.5 2401.5 1049.29 2401.5 1051.5Z" stroke="#FFFFFF" stroke-width="0.961417" stroke-miterlimit="8" fill="#DADADA" fill-rule="evenodd"/></g></svg>