<svg width="100%" height="100%" viewBox="0 0 80 80" version="1.1" xmlns="http://www.w3.org/2000/svg" xmlns:xlink="http://www.w3.org/1999/xlink">
    
    
    <g stroke="none" stroke-width="1" fill="none" fill-rule="evenodd">
        
        <path d="M40,19 C51.5979797,19 61,28.4020203 61,40 C61,51.5979797 51.5979797,61 40,61 C28.4020203,61 19,51.5979797 19,40 C19,28.4020203 28.4020203,19 40,19 Z M40,21 C29.5065898,21 21,29.5065898 21,40 C21,50.4934102 29.5065898,59 40,59 C50.4934102,59 59,50.4934102 59,40 C59,29.5065898 50.4934102,21 40,21 Z M33.636039,32.2218254 L40,38.585 L46.363961,32.2218254 C46.7544853,31.8313011 47.3876503,31.8313011 47.7781746,32.2218254 C48.1686989,32.6123497 48.1686989,33.2455147 47.7781746,33.636039 L41.415,40 L47.7781746,46.363961 C48.1686989,46.7544853 48.1686989,47.3876503 47.7781746,47.7781746 C47.3876503,48.1686989 46.7544853,48.1686989 46.363961,47.7781746 L40,41.415 L33.636039,47.7781746 C33.2455147,48.1686989 32.6123497,48.1686989 32.2218254,47.7781746 C31.8313011,47.3876503 31.8313011,46.7544853 32.2218254,46.363961 L38.585,40 L32.2218254,33.636039 C31.8313011,33.2455147 31.8313011,32.6123497 32.2218254,32.2218254 C32.6123497,31.8313011 33.2455147,31.8313011 33.636039,32.2218254 Z" fill="var(--tchmi-icons-color, #4c6374)"></path>
    </g>
</svg>